<?xml version="1.0" encoding="UTF-8"?>
<svg xmlns="http://www.w3.org/2000/svg" viewBox="0 0 300 300">
  <g id="a" data-name="Layer 10">
    <path d="M23.86,181.4c32.82,1.55,21.85,1.92,32.82,1.55,11.69-.39,38.18-.69,38.18-.69,0,0-14.23-23.29-22.41-27.2-3.4-1.63-30.82.05-30.82.05,0,0-6.9-.04-16.28,22.49" style="fill: #313131;"/>
    <path d="M244.2,182.95s30.11.31,34.13-3.53c-5.76-12.01-13.96-25.42-18.22-26.39s-29.86,0-29.86,0c0,0-6.31.87-23.27,30.25" style="fill: #313131;"/>
    <path d="M23.86,181.4c16.59,3.11,21.85,1.92,32.82,1.55,11.69-.39,38.18-.69,38.18-.69" style="fill: #313131;"/>
  </g>
  <g id="b" data-name="Car color">
    <polygon points="285.75 155.68 286.56 155.68 286.56 160.96 285.64 160.96 285.75 155.68" style="fill: #f47a20;"/>
    <path d="M36.07,140.73c-3.59.61-8.29.64-9.82.64,1-2.31,3.36-3.68,5.75-3.35,1.79.25,2.41.93,3.36,1.97.21.23.45.49.71.75Z" style="fill: #828282;"/>
    <path d="M18.96,157.6c-.32.32-.73.31-1.01.2-.28-.11-.57-.4-.57-.85v-9.51c0-.46.29-.74.57-.85.28-.11.69-.12,1.01.2l1.49,1.49v7.84l-1.49,1.49Z" style="fill: #828282;"/>
    <path d="M185.57,189.88c-2.14,0-6.15-3.22-7.56-4.4h18.41c-.67.49-1.11,1.3-1.11,2.22s.42,1.69,1.06,2.18h-10.82Z" style="fill: #505150;"/>
    <path d="M198.27,189.88h-.69c-.99-.18-1.75-1.08-1.75-2.18,0-1.22.94-2.22,2.1-2.22s2.1,1,2.1,2.22c0,1.1-.76,2.01-1.75,2.18Z" style="fill: #303030;"/>
    <path d="M204.71,187.7c0,1.22-.94,2.22-2.1,2.22-.05,0-.09-.01-.13-.01-.02,0-.03-.02-.06-.02h-.16c-.99-.18-1.75-1.08-1.75-2.18,0-1.22.94-2.22,2.1-2.22s2.1,1,2.1,2.22Z" style="fill: #303030;"/>
    <g>
      <path d="M289.52,168.44s-.04.08-.04.13l-.52,10.44h-7.28c-.16,0-.31-.1-.38-.25-12-26.11-19.98-28.77-20.85-28.99-.05-.01-.1-.02-.15-.02h-30.73c-.08,0-.15,0-.22.02-8.8,2-22.38,28.56-23.9,31.58-.07.14-.21.22-.37.22h-107.02c-.14,0-.27-.07-.35-.18-2.14-3.33-10.25-15.67-17.07-23.2l7.39-7.39s.03-.04.04-.06l8.33-15.55s0,0,0,0c0,0,0,0,0,0,1.59-3.06,2.79-5.52,2.88-5.7l20.23-33.13s.04-.08.04-.13v-3.44c1.64-.7,20.41-7.36,134.52-6.37l-2.85,2.85c-.07.07-.09.18-.05.27.04.09.13.15.23.15.65,0,15.98-.03,21.12-2.46h3.3l-1.85,2.69c-.04.06-.06.14-.03.22.11.35,10.97,35.32,10.79,63.47,0,.02,0,.05,0,.07l.5,1.79-.11,5.74s0,0,0,0c0,0,0,0,0,0v3.54c0,.07.03.14.09.19.06.05.13.07.21.05.03,0,3.19-.55,5.67,1.08l-1.58,2.37Z" style="fill: #505150;"/>
      <path d="M164.77,96.65l-2.74-2.74s-.11-.07-.18-.07h-36.02s0,0,0,0c-.14.02-3.63.74-19.11,26.51-1.45.8-2.5,1.95-3.12,3.47-.12.63-.15,1.27-.08,1.92l-.85,1.47s-.03.08-.03.12c0,5.7-.02,8.15-.02,8.67l-.39.36c-.35.33-.55.79-.55,1.27v4.08c0,.52.23,1.01.64,1.34l.46.38.04,14.53-.38.36c-.35.33-.55.79-.55,1.27v4.08c0,.52.23,1.01.64,1.34l.46.38v7.63c0,.07.03.13.07.18l2.55,2.55s.11.07.18.07h55.75c.07,0,.13-.03.18-.07l3.05-3.05s.07-.11.07-.18v-75.7c0-.07-.03-.13-.07-.18Z" style="fill: #505150;"/>
      <path d="M254.85,86.34l3.34-3.34c1.31-.07,13.39-.77,17.51-1.96-2.35,3.65-3.23,5.36-3.41,5.74-4.5,2.1-17.33,2.36-20.28,2.39l2.84-2.84Z" style="fill: #505150;"/>
      <path d="M33.28,134.41c1.02-.09,1.97-.55,2.68-1.3.74-.78,1.34-1.21,1.48-1.3.82-.23,15.72-4.31,49.15-4.64,4.15.5,6.55,1.52,7.61,2.09.44.23.92.35,1.43.35h3.03c-.39.79-1.39,2.8-2.63,5.21-20.21.59-42.06,3.51-53.82,5.08-2.18.29-4.05.54-5.54.73-.36-.35-.66-.67-.94-.99-.95-1.04-1.69-1.86-3.66-2.13-2.62-.36-5.22,1.15-6.3,3.68-.07.15-.22.25-.38.25h-4.23c.95-1.42,4.81-6.42,12.13-7.04Z" style="fill: #505150;"/>
      <path d="M9.06,172.54c-.13-1.64.19-3.29.91-4.77,1.3-2.65,3.49-5.88,6.57-6.15,1.11-.06,1.94-.08,2.54-.08.39,0,.7,0,.92.02.25,0,.48-.08.66-.25.18-.17.28-.41.28-.67v-12.36c.03-.06.03-.12,0-.18v-6.16h4.44c.13,0,.26-.04.37-.09.1,0,.38,0,.83,0,1.92,0,6.6-.07,10.04-.73,1.51-.19,3.41-.44,5.65-.74,11.69-1.56,33.38-4.46,53.48-5.07l-8.11,15.14-7.35,7.35c-3.06-3.32-5.83-5.62-7.66-5.62h-.04c-5.51.09-25.91.02-32.03,0h-.19s-.08,0-.12.01c-1.15.23-11.52,3.09-20.26,32.46-.05.18-.21.3-.39.3h-9.2c-.22,0-.39-.16-.41-.38l-.93-12.06Z" style="fill: #505150;"/>
      <path d="M288.62,179.95c-1.41,1.26-6.42.89-8.51.67-.61-.06-1.13-.43-1.4-.99-3.04-6.32-13.42-26.92-19.18-26.92h-28.69c-6.27,0-20.42,24.01-24.61,31.37-.31.55-.9.9-1.54.9h-32.35c-.42,0-.8.04-1.16.13-3.68.93-30.36,1.62-35.68,1.75-.14,0-.27-.05-.37-.14s-.15-.23-.15-.36v-.51c0-.56-.45-1.01-1.01-1.01h-5.24c-.27,0-.52.1-.71.29l-1.47,1.47c-.1.1-.22.15-.36.15h-7.81c-.14,0-.26-.05-.36-.15l-1.32-1.32c-.19-.19-.44-.3-.71-.3h-19.17c-14.98-24.63-24.16-30.08-24.25-30.13-.04-.02-.08-.03-.12-.03-.18,0-18.42-.13-29.58,0-10.29-.89-20.3,29.2-21.23,32.07h-11.65v-1.51c.12.06.26.11.41.11h9.2c.4,0,.75-.26.87-.66,8.81-29.59,19.43-32.03,19.9-32.12h.19c6.12.02,26.53.09,32.04,0h.03c4.72,0,17.71,18.19,24.65,28.96.17.26.45.41.77.41h107.02c.35,0,.66-.19.82-.5,1.51-3,14.99-29.36,23.57-31.31.04,0,.07-.01.11-.01h30.76c.34.09,8.42,2.37,20.52,28.71.15.33.48.54.83.54h7.21c-.05.16-.13.32-.28.45Z" style="fill: #505150;"/>
      <path d="M203.43,175.27l-32.26.16-3.02-3.02v-6.85l.36-.39c.3-.32.46-.74.46-1.18v-4.14c0-.47-.18-.91-.52-1.24l-.44-.43v-15.06l.36-.39c.29-.32.46-.74.46-1.17v-4.14c0-.46-.19-.91-.52-1.24l-.47-.46.03-38.82,2.61-2.61h44.34c.38.37,2.14,2.08,2.69,2.69,1.05,1.18,2.92,30.42,3.92,49.84l-18,28.43Z" style="fill: #505150;"/>
    </g>
    <path d="M176.52,97.08c-1.04,0-2,.41-2.72,1.16-.72.75-1.09,1.73-1.04,2.77l.97,22.48c.09,2.02,1.74,3.6,3.76,3.6h32.25c1.04,0,2-.41,2.72-1.16.72-.75,1.09-1.73,1.04-2.77l-.97-22.48c-.09-2.02-1.74-3.6-3.76-3.6h-32.25Z" style="fill: #828282;"/>
    <path d="M228.55,96.39c-1.06,0-2.08.45-2.79,1.24-.71.79-1.05,1.85-.94,2.9l2.36,22.34c.2,1.92,1.8,3.36,3.73,3.36h38.68c1.11,0,2.15-.49,2.87-1.33.71-.85,1.02-1.96.83-3.05l-3.83-22.34c-.31-1.81-1.87-3.12-3.7-3.12h-37.21Z" style="fill: #828282;"/>
    <polygon points="93 146.41 100.58 146.41 99.89 144.82 94.47 144.82 93 146.41" style="fill: #f47a20;"/>
    <polygon points="32.07 145.65 29.51 147.48 86.86 146.42 88.35 144.1 32.07 145.65" style="fill: #828282;"/>
    <polygon points="106.05 146.41 146.25 146.41 144.44 144.08 110.48 144.08 106.05 146.41" style="fill: #828282;"/>
    <polygon points="170.71 146.41 203 146.41 201.98 144.08 170.71 144.08 170.71 146.41" style="fill: #828282;"/>
    <rect x="224.18" y="144.08" width="54.24" height="2.33" style="fill: #828282;"/>
    <path d="M277.9,123.93c.71.53,1.28.61,1.7.22.19-.17.27-.46.21-.73-.8-3.7-4.78-22.24-5.44-26.2-.61-.63-1.25-.81-1.9-.52-.42.18-.64.65-.54,1.11h0c.55,2.43,5.3,23.62,5.98,26.12Z" style="fill: #505150;"/>
    <rect x="109.63" y="161.09" width="3.66" height="1.9" style="fill: #f47a20;"/>
    <path d="M154.8,142.16c1.22,0,2.3.71,2.8,1.79h-5.61c.5-1.08,1.59-1.79,2.8-1.79Z" style="fill: #414141;"/>
    <path d="M149.34,146.01v-1.35c0-.11.09-.2.2-.2h7.5v1.76h-7.5c-.11,0-.2-.09-.2-.2Z" style="fill: #828282;"/>
    <path d="M154.8,148.34c-1.14,0-2.19-.64-2.72-1.63h5.44c-.53.99-1.58,1.63-2.72,1.63Z" style="fill: #414141;"/>
    <path d="M162.13,145.99c0,.12-.1.22-.22.22h-4.37v-1.76h4.37c.12,0,.22.1.22.22v1.32Z" style="fill: #505150;"/>
    <path d="M211.9,142.16c1.22,0,2.3.71,2.8,1.79h-5.61c.5-1.08,1.59-1.79,2.8-1.79Z" style="fill: #414141;"/>
    <path d="M206.44,146.01v-1.35c0-.11.09-.2.2-.2h7.5v1.76h-7.5c-.11,0-.2-.09-.2-.2Z" style="fill: #828282;"/>
    <path d="M211.9,148.34c-1.14,0-2.19-.64-2.72-1.63h5.44c-.53.99-1.58,1.63-2.72,1.63Z" style="fill: #414141;"/>
    <path d="M219.23,145.99c0,.12-.1.22-.22.22h-4.37v-1.76h4.37c.12,0,.22.1.22.22v1.32Z" style="fill: #505150;"/>
    <path d="M104.07,123.97c.57-1.38,1.57-2.47,2.95-3.22,1.54-.84,3.52-1.29,6.08-1.37,1.05-.04,1.86.05,2.14.09.04.07.11.17.19.32,0,0,0,.01,0,.02.04.07.08.14.12.22,0,.01.02.03.03.05.04.08.08.16.13.25.02.03.03.07.05.1.04.08.08.16.12.24.02.05.05.11.07.16.03.08.07.15.1.23.03.06.05.13.08.2.03.08.07.16.1.25.03.07.06.15.08.22.03.09.07.18.1.27.03.08.06.17.08.25.03.1.07.19.1.29.03.09.05.18.08.28.03.1.06.21.09.31.03.1.05.2.08.3.03.11.06.22.08.33.02.11.05.22.07.33.02.12.05.23.07.35.02.12.04.24.06.36.02.12.04.24.06.36.02.13.03.26.05.39.01.12.03.25.04.38.01.13.02.27.03.4,0,.13.02.26.03.4,0,.14,0,.28.01.42,0,.12,0,.24,0,.37-4.2,3.44-10.95,1.8-11.62,1.62-.24-.22-1.46-1.43-1.72-3.35-.08-.64-.05-1.24.05-1.81Z" style="fill: #505150;"/>
    <path d="M117.87,127.38c0-.13-.01-.26-.01-.39,0-.14,0-.29-.02-.43,0-.17-.02-.33-.04-.49-.01-.14-.02-.27-.04-.4-.02-.16-.04-.31-.06-.46-.02-.13-.03-.26-.05-.38-.02-.15-.05-.29-.08-.43-.02-.12-.04-.24-.07-.36-.03-.14-.06-.27-.09-.41-.03-.11-.05-.22-.08-.33-.03-.13-.07-.26-.1-.38-.03-.1-.05-.2-.08-.3-.04-.12-.07-.24-.11-.35-.03-.09-.06-.19-.09-.28-.04-.11-.08-.21-.11-.32-.03-.08-.06-.17-.09-.25-.04-.1-.08-.2-.12-.29-.03-.07-.06-.15-.09-.22-.04-.09-.08-.17-.11-.26-.03-.07-.06-.13-.09-.2-.04-.08-.07-.15-.11-.22-.03-.06-.06-.12-.08-.17-.04-.07-.07-.13-.1-.2-.02-.04-.05-.09-.07-.13-.03-.06-.06-.1-.09-.15-.02-.04-.04-.08-.06-.11-.03-.05-.05-.08-.07-.12-.01-.02-.03-.05-.04-.07-.03-.04-.05-.07-.06-.1,0,0-.01-.02-.02-.03-.02-.03-.03-.05-.04-.06-.04-.05-.1-.09-.16-.1-.03,0-.73-.14-1.8-.12-.03,0-.06,0-.09,0l11.72-19.25c.67-1.11,1.9-1.8,3.2-1.8h26.54c2.07,0,3.75,1.68,3.75,3.75v22.06c0,2.07-1.68,3.75-3.75,3.75h-37.13Z" style="fill: #828282;"/>
    <g>
      <path d="M166.92,141.44v-4.08c0-.34.14-.67.39-.9l.28-.27.37.37c.23.23.37.55.37.88v4.14c0,.31-.12.61-.33.84l-.26.29-.37-.3c-.29-.24-.45-.58-.45-.96Z" style="fill: #414141;"/>
      <path d="M167.06,163.87v-4.08c0-.34.14-.67.39-.9l.28-.27.37.37c.24.23.37.55.37.88v4.14c0,.31-.12.61-.33.84l-.26.29-.37-.3c-.29-.24-.45-.58-.45-.96Z" style="fill: #414141;"/>
      <path d="M102.18,141.72v-4.08c0-.34.14-.67.39-.9l.28-.27.37.37c.23.23.37.55.37.88v4.14c0,.31-.12.61-.33.84l-.26.29-.37-.3c-.29-.24-.45-.58-.45-.96Z" style="fill: #414141;"/>
      <path d="M102.39,163.68v-4.08c0-.34.14-.67.39-.9l.28-.27.37.37c.23.23.37.55.37.88v4.14c0,.31-.12.61-.33.84l-.26.29-.37-.3c-.29-.24-.45-.58-.45-.96Z" style="fill: #414141;"/>
    </g>
    <path d="M199.41,185.48h1.71c-.37.27-.66.64-.86,1.07-.19-.43-.49-.8-.86-1.07Z"/>
    <path d="M199.45,189.88c.35-.27.63-.62.81-1.04.18.41.47.77.81,1.04h-1.63Z"/>
  </g>
  <g id="c" data-name="Car Outline">
    <path d="M176.52,96.83h32.24c2.15,0,3.92,1.69,4.01,3.84l.97,22.48c.1,2.28-1.73,4.19-4.01,4.19h-32.24c-2.15,0-3.92-1.69-4.01-3.84l-.97-22.48c-.1-2.28,1.73-4.19,4.01-4.19Z" style="fill: none; stroke: #000; stroke-linecap: round; stroke-linejoin: round; stroke-width: .5px;"/>
    <path d="M228.55,96.14h37.21c1.95,0,3.62,1.4,3.95,3.33l3.83,22.34c.42,2.45-1.46,4.68-3.95,4.68h-38.68c-2.05,0-3.77-1.55-3.98-3.58l-2.36-22.34c-.25-2.36,1.6-4.42,3.98-4.42Z" style="fill: none; stroke: #000; stroke-linecap: round; stroke-linejoin: round; stroke-width: .5px;"/>
    <path d="M159,101.57v22.06c0,2.21-1.79,4-4,4h-37.38c0-5.22-2.23-8.39-2.23-8.39,0,0-.95-.16-2.3-.11l11.96-19.64c.72-1.19,2.02-1.92,3.41-1.92h26.54c2.21,0,4,1.79,4,4Z" style="fill: none; stroke: #000; stroke-linecap: round; stroke-linejoin: round; stroke-width: .5px;"/>
    <polygon points="92.43 146.66 94.36 144.57 100.06 144.57 100.96 146.66 92.43 146.66" style="fill: none; stroke: #000; stroke-linecap: round; stroke-linejoin: round; stroke-width: .5px;"/>
    <path d="M102.86,136.13l.54.53c.28.28.44.66.44,1.06v4.14c0,.37-.14.73-.39,1.01l-.42.46-.55-.45c-.35-.28-.55-.7-.55-1.15v-4.08c0-.41.17-.8.47-1.08l.46-.43Z" style="fill: none; stroke: #000; stroke-linecap: round; stroke-linejoin: round; stroke-width: .5px;"/>
    <path d="M103.07,158.08l.54.53c.28.28.44.66.44,1.06v4.14c0,.37-.14.73-.39,1.01l-.42.46-.55-.45c-.35-.28-.55-.7-.55-1.15v-4.08c0-.41.17-.8.47-1.08l.46-.43Z" style="fill: none; stroke: #000; stroke-linecap: round; stroke-linejoin: round; stroke-width: .5px;"/>
    <path d="M167.6,135.84l.54.53c.28.28.44.66.44,1.06v4.14c0,.37-.14.73-.39,1.01l-.42.46-.55-.45c-.35-.28-.55-.7-.55-1.15v-4.08c0-.41.17-.8.47-1.08l.46-.43Z" style="fill: none; stroke: #000; stroke-linecap: round; stroke-linejoin: round; stroke-width: .5px;"/>
    <path d="M167.74,158.27l.54.53c.28.28.44.66.44,1.06v4.14c0,.37-.14.73-.39,1.01l-.42.46-.55-.45c-.35-.28-.55-.7-.55-1.15v-4.08c0-.41.17-.8.47-1.08l.46-.43Z" style="fill: none; stroke: #000; stroke-linecap: round; stroke-linejoin: round; stroke-width: .5px;"/>
    <path d="M102.86,136.13s.02-2.27.02-8.79c.3-.52.6-1.03.89-1.53" style="fill: none; stroke: #000; stroke-linecap: round; stroke-linejoin: round; stroke-width: .5px;"/>
    <path d="M106.9,120.53c14.48-24.12,18.61-26.44,18.93-26.44" style="fill: none; stroke: #000; stroke-linecap: round; stroke-linejoin: round; stroke-width: .5px;"/>
    <path d="M103.03,143.33l.04,14.76-.04-14.76Z" style="fill: none; stroke: #000; stroke-linecap: round; stroke-linejoin: round; stroke-width: .5px;"/>
    <polyline points="103.24 165.28 103.24 173.03 105.79 175.58 161.54 175.58 164.59 172.53 164.59 96.83 161.85 94.09 125.83 94.09" style="fill: none; stroke: #000; stroke-linecap: round; stroke-linejoin: round; stroke-width: .5px;"/>
    <line x1="167.77" y1="143.04" x2="167.77" y2="158.27" style="fill: none; stroke: #000; stroke-linecap: round; stroke-linejoin: round; stroke-width: .5px;"/>
    <path d="M167.91,165.47v7.05l3.16,3.16,32.5-.16,18.11-28.61s-2.51-48.68-4-50.08c-.62-.69-2.77-2.77-2.77-2.77h-44.54l-2.75,2.75-.03,39.03" style="fill: none; stroke: #000; stroke-linecap: round; stroke-linejoin: round; stroke-width: .5px;"/>
    <polygon points="28.7 147.74 87 146.66 88.82 143.83 31.99 145.4 28.7 147.74" style="fill: none; stroke: #000; stroke-linecap: round; stroke-linejoin: round; stroke-width: .5px;"/>
    <polygon points="105.03 146.66 146.76 146.66 144.56 143.83 110.42 143.83 105.03 146.66" style="fill: none; stroke: #000; stroke-linecap: round; stroke-linejoin: round; stroke-width: .5px;"/>
    <polygon points="170.46 146.66 170.46 143.83 202.14 143.83 203.38 146.66 170.46 146.66" style="fill: none; stroke: #000; stroke-linecap: round; stroke-linejoin: round; stroke-width: .5px;"/>
    <rect x="223.93" y="143.83" width="54.74" height="2.83" style="fill: none; stroke: #000; stroke-linecap: round; stroke-linejoin: round; stroke-width: .5px;"/>
    <path d="M271.68,97.87c-.13-.57.15-1.16.68-1.4.57-.25,1.37-.28,2.23.64.63,3.83,4.78,23.14,5.45,26.26.08.35-.02.72-.28.97-.36.34-1.02.57-2.09-.26-.56-2-5.06-22.03-6-26.21Z" style="fill: none; stroke: #000; stroke-linecap: round; stroke-linejoin: round; stroke-width: .5px;"/>
    <rect x="109.38" y="160.84" width="4.16" height="2.4" style="fill: none; stroke: #000; stroke-linecap: round; stroke-linejoin: round; stroke-width: .5px;"/>
    <ellipse cx="202.62" cy="187.7" rx="2.35" ry="2.47" style="fill: none; stroke: #000; stroke-linecap: round; stroke-linejoin: round; stroke-width: .5px;"/>
    <ellipse cx="197.92" cy="187.7" rx="2.35" ry="2.47" style="fill: none; stroke: #000; stroke-linecap: round; stroke-linejoin: round; stroke-width: .5px;"/>
    <path d="M157.29,144.2v2.26h-7.75c-.25,0-.45-.2-.45-.45v-1.35c0-.25.2-.45.45-.45h7.75Z" style="fill: none; stroke: #000; stroke-linecap: round; stroke-linejoin: round; stroke-width: .5px;"/>
    <path d="M162.38,144.67v1.32c0,.26-.21.47-.47.47h-4.62v-2.26h4.62c.26,0,.47.21.47.47Z" style="fill: none; stroke: #000; stroke-linecap: round; stroke-linejoin: round; stroke-width: .5px;"/>
    <path d="M157.91,146.46c-.48,1.24-1.7,2.13-3.11,2.13s-2.63-.89-3.11-2.13h6.22Z" style="fill: none; stroke: #000; stroke-linecap: round; stroke-linejoin: round; stroke-width: .5px;"/>
    <path d="M151.63,144.2c.44-1.33,1.69-2.29,3.17-2.29s2.73.96,3.17,2.29h-6.34Z" style="fill: none; stroke: #000; stroke-linecap: round; stroke-linejoin: round; stroke-width: .5px;"/>
    <path d="M214.39,144.2v2.26h-7.75c-.25,0-.45-.2-.45-.45v-1.35c0-.25.2-.45.45-.45h7.75Z" style="fill: none; stroke: #000; stroke-linecap: round; stroke-linejoin: round; stroke-width: .5px;"/>
    <path d="M219.48,144.67v1.32c0,.26-.21.47-.47.47h-4.62v-2.26h4.62c.26,0,.47.21.47.47Z" style="fill: none; stroke: #000; stroke-linecap: round; stroke-linejoin: round; stroke-width: .5px;"/>
    <path d="M215.01,146.46c-.48,1.24-1.7,2.13-3.11,2.13s-2.63-.89-3.11-2.13h6.22Z" style="fill: none; stroke: #000; stroke-linecap: round; stroke-linejoin: round; stroke-width: .5px;"/>
    <path d="M208.73,144.2c.44-1.33,1.69-2.29,3.17-2.29s2.73.96,3.17,2.29h-6.34Z" style="fill: none; stroke: #000; stroke-linecap: round; stroke-linejoin: round; stroke-width: .5px;"/>
    <path d="M100.55,156.51s102.58-1.83,119.38-1.37" style="fill: none; stroke: #231f20; stroke-linecap: round; stroke-linejoin: round; stroke-width: .5px;"/>
    <path d="M97.68,151.27c-2.87-.41-5.71.95-7.69,2.96,0,0,.07-.24.07-.24.22.82.48,1.63.8,2.41.31.76.69,1.55,1.18,2.19l-.19-.08,3.94.21s.04.02.04.04c0,.02-.02.04-.04.04l-3.94.21c-.08,0-.14-.03-.19-.09-.56-.72-.92-1.5-1.27-2.33-.33-.81-.6-1.64-.82-2.48-.02-.09,0-.18.07-.23,2.01-1.9,5.55-3.47,8.04-2.61h0Z" style="fill: #231f20;"/>
    <path d="M94.58,163.32l-6.4.17.21-.39,8.11,11.73-.21-.11,5.26.17c.1,0,.11.17,0,.16,0,0-5.26.17-5.26.17-.09,0-.16-.04-.21-.11l-8.11-11.73c-.12-.16,0-.4.21-.39,0,0,6.4.17,6.4.17.09,0,.09.15,0,.15h0Z" style="fill: #231f20;"/>
    <path d="M117.62,127.63c-4.55,3.84-12,1.73-12,1.73,0,0-1.54-1.3-1.85-3.55-.07-.58-.07-1.23.07-1.94.66-1.59,1.77-2.64,3.06-3.34,2.08-1.14,4.59-1.35,6.19-1.4,1.35-.05,2.3.11,2.3.11,0,0,2.23,3.17,2.23,8.39Z" style="fill: none; stroke: #231f20; stroke-linecap: round; stroke-linejoin: round; stroke-width: .5px;"/>
    <line x1="110.5" y1="129.94" x2="114.24" y2="133.67" style="fill: none; stroke: #231f20; stroke-linecap: round; stroke-linejoin: round; stroke-width: .5px;"/>
    <line x1="115" y1="129.15" x2="119.3" y2="131.8" style="fill: none; stroke: #231f20; stroke-linecap: round; stroke-linejoin: round; stroke-width: .5px;"/>
    <path d="M25.72,141.61s6.45.13,10.86-.72" style="fill: none; stroke: #000; stroke-linecap: round; stroke-linejoin: round; stroke-width: .5px;"/>
    <polyline points="96.18 135.07 87.85 150.62 80.29 158.18" style="fill: none; stroke: #000; stroke-linecap: round; stroke-linejoin: round; stroke-width: .5px;"/>
    <path d="M99.06,129.36l20.24-33.14v-3.6s13.25-7.54,135.37-6.46l3.41-3.41s14.91-.81,18.22-2.18c-2.97,4.57-3.83,6.4-3.83,6.4h3.83l-2.11,3.09s10.98,35.03,10.8,63.54l.51,1.83h1.31v5.77h-1.43v3.54s3.43-.63,6.06,1.26l-1.71,2.57-.53,10.67h-7.52c-.26,0-.5-.16-.6-.39-12.03-26.18-20-28.68-20.69-28.85-.03,0-.06-.01-.09-.01-1.26,0-29.03,0-30.73,0-.06,0-.11,0-.17.02-8.66,1.97-22.04,28.06-23.74,31.44-.11.22-.34.36-.59.36h-107.02c-.23,0-.43-.11-.56-.3-2-3.09-18.98-29.17-24.9-29.07s-31.15,0-32.23,0c-.03,0-.05,0-.08,0-.72.14-11.27,2.74-20.07,32.29-.08.28-.34.48-.63.48-1.69,0-7.33,0-9.2,0-.35,0-.63-.27-.66-.61l-.93-12.06c-.13-1.69.19-3.38.94-4.9,1.24-2.54,3.51-6,6.78-6.29,1.8-.09,2.88-.09,3.49-.06.38.02.69-.29.69-.66v-18.94s4.69,0,4.69,0c.27,0,.51-.16.61-.41h0c1.02-2.38,3.47-3.88,6.03-3.53s2.89,1.56,4.55,3.13c9.6-1.2,35.6-5.14,59.6-5.83,1.66-3.2,2.88-5.71,2.88-5.71h-3.44c-.46,0-.9-.11-1.31-.32-1.01-.53-3.45-1.6-7.7-2.11-34.71.34-49.29,4.66-49.29,4.66,0,0-.69.44-1.56,1.36-.66.7-1.56,1.14-2.52,1.22-8.72.74-12.56,7.54-12.56,7.54" style="fill: none; stroke: #000; stroke-linecap: round; stroke-linejoin: round; stroke-width: .5px;"/>
    <path d="M254.67,86.16l-3.27,3.27s15.97,0,21.07-2.46" style="fill: none; stroke: #000; stroke-linecap: round; stroke-linejoin: round; stroke-width: .5px;"/>
    <path d="M9.74,184.62v2.52h12.09s10.51-32.97,21.03-32.07c11.31-.13,29.6,0,29.6,0,0,0,9.07,5.21,24.24,30.17h19.31c.2,0,.39.08.54.22l1.32,1.32c.14.14.33.22.54.22h7.81c.2,0,.39-.08.54-.22l1.47-1.47c.14-.14.33-.22.54-.22h5.24c.42,0,.76.34.76.76v.52c0,.43.35.77.78.76,4.95-.12,32.01-.82,35.73-1.76.36-.09.73-.13,1.1-.13h5s5.49,4.9,8.23,4.9h16.86" style="fill: none; stroke: #000; stroke-linecap: round; stroke-linejoin: round; stroke-width: .5px;"/>
    <path d="M177.34,185.23h27.35c.73,0,1.4-.39,1.76-1.02,3.13-5.49,18.12-31.24,24.39-31.24h28.69c5.73,0,16.57,21.83,18.96,26.78.3.63.9,1.05,1.6,1.13,2.66.28,9.12.72,9.12-1.62" style="fill: none; stroke: #000; stroke-linecap: round; stroke-linejoin: round; stroke-width: .5px;"/>
    <path d="M20.7,156.21l-1.56,1.56c-.74.74-2,.22-2-.83v-9.51c0-1.05,1.26-1.57,2-.83l1.6,1.6" style="fill: none; stroke: #000; stroke-linecap: round; stroke-linejoin: round; stroke-width: .5px;"/>
    <line x1="285.39" y1="161.21" x2="285.5" y2="155.43" style="fill: none; stroke: #000; stroke-linecap: round; stroke-linejoin: round; stroke-width: .5px;"/>
  </g>
  <g id="d" data-name="Wheel color">
    <path d="M56.68,157.79c-13.88,0-25.17,11.29-25.17,25.17s11.29,25.17,25.17,25.17,25.17-11.29,25.17-25.17-11.29-25.17-25.17-25.17Z" style="fill: #212120;"/>
    <path d="M56.68,162.22c-11.44,0-20.74,9.3-20.74,20.73s9.3,20.74,20.74,20.74,20.73-9.3,20.73-20.74-9.3-20.73-20.73-20.73Z" style="fill: #ababad;"/>
    <path d="M56.68,190.35c-4.08,0-7.4-3.32-7.4-7.4s3.32-7.4,7.4-7.4,7.4,3.32,7.4,7.4-3.32,7.4-7.4,7.4Z" style="fill: #212120;"/>
    <path d="M56.68,179.87c-1.7,0-3.08,1.38-3.08,3.08s1.38,3.08,3.08,3.08,3.08-1.38,3.08-3.08-1.38-3.08-3.08-3.08Z" style="fill: #c9c9c9;"/>
    <path d="M57.62,190.28l1.08,11.48c2.62-.27,5.1-1.08,7.39-2.4l-5.87-9.93c-.8.45-1.7.73-2.61.84Z" style="fill: #231f20;"/>
    <path d="M47.25,199.36c2.28,1.32,4.76,2.12,7.39,2.41l1.09-11.48c-.91-.11-1.8-.4-2.61-.84l-5.88,9.92Z" style="fill: #231f20;"/>
    <path d="M63.94,184.32l11.26,2.52c.54-2.56.54-5.24,0-7.77l-11.26,2.52c.17.9.17,1.84,0,2.73Z" style="fill: #c9c9c9;"/>
    <path d="M63.36,179.79l10.59-4.58c-1.07-2.39-2.64-4.56-4.57-6.29l-7.63,8.66c.67.63,1.22,1.39,1.61,2.21Z" style="fill: #c9c9c9;"/>
    <path d="M60.22,176.47l5.87-9.93c-2.27-1.3-4.82-2.13-7.39-2.4l-1.09,11.49c.91.12,1.8.4,2.6.84Z" style="fill: #c9c9c9;"/>
    <path d="M55.74,175.62l-1.08-11.49c-2.6.28-5.15,1.11-7.39,2.4l5.88,9.93c.81-.44,1.7-.73,2.6-.85Z" style="fill: #c9c9c9;"/>
    <path d="M51.61,177.58l-7.63-8.66c-1.94,1.76-3.52,3.92-4.57,6.29l10.59,4.58c.39-.83.94-1.59,1.61-2.21Z" style="fill: #c9c9c9;"/>
    <path d="M49.42,181.58l-11.26-2.52c-.54,2.56-.54,5.24,0,7.77l11.26-2.52c-.17-.9-.17-1.84,0-2.73Z" style="fill: #c9c9c9;"/>
    <path d="M44.05,186.03c.15.63.35,1.25.6,1.86l5.14-2.23c-.11-.29-.2-.57-.27-.85l-5.47,1.22Z" style="fill: #212120;"/>
    <path d="M44.05,179.87l5.47,1.22c.07-.29.16-.57.27-.85l-5.14-2.22c-.25.59-.45,1.21-.6,1.85Z" style="fill: #212120;"/>
    <path d="M48.27,173.03l3.71,4.21c.22-.19.46-.36.72-.52l-2.85-4.83c-.54.33-1.07.71-1.57,1.14Z" style="fill: #212120;"/>
    <path d="M55.7,169.99l.53,5.59c.28-.02.61-.02.89,0l.52-5.59c-.64-.05-1.31-.05-1.94,0Z" style="fill: #212120;"/>
    <path d="M60.65,176.72c.25.16.49.33.72.53l3.72-4.22c-.53-.44-1.06-.82-1.59-1.14l-2.85,4.84Z" style="fill: #212120;"/>
    <path d="M63.56,185.66l5.16,2.23c.25-.61.45-1.23.6-1.85l-5.49-1.23c-.07.28-.16.57-.27.85Z" style="fill: #212120;"/>
    <path d="M63.56,180.25c.11.28.2.56.27.85l5.49-1.23c-.15-.64-.35-1.26-.6-1.85l-5.16,2.23Z" style="fill: #212120;"/>
    <path d="M61.75,188.33l7.63,8.66c1.94-1.76,3.52-3.92,4.57-6.29l-10.59-4.58c-.39.83-.94,1.59-1.61,2.21Z" style="fill: #c9c9c9;"/>
    <path d="M50,186.12l-10.59,4.58c1.07,2.39,2.64,4.56,4.57,6.29l7.63-8.66c-.67-.63-1.22-1.39-1.61-2.21Z" style="fill: #c9c9c9;"/>
    <path d="M53.13,189.44l-5.87,9.93c2.27,1.3,4.82,2.13,7.39,2.4l1.09-11.49c-.91-.12-1.8-.4-2.6-.84Z" style="fill: #c9c9c9;"/>
    <path d="M57.62,190.28l1.08,11.49c2.6-.28,5.15-1.11,7.39-2.4l-5.88-9.93c-.81.44-1.7.73-2.6.85Z" style="fill: #c9c9c9;"/>
    <path d="M60.66,189.19l2.86,4.83c.56-.34,1.09-.72,1.58-1.14l-3.72-4.21c-.23.2-.47.37-.72.52Z" style="fill: #212120;"/>
    <path d="M55.7,195.92c.64.05,1.31.05,1.94,0l-.52-5.59c-.27.02-.62.02-.89,0l-.53,5.59Z" style="fill: #212120;"/>
    <path d="M48.26,192.87c.5.43,1.03.82,1.58,1.15l2.85-4.83c-.24-.15-.48-.33-.72-.53l-3.71,4.21Z" style="fill: #212120;"/>
    <path d="M45.97,195.47c.07.9.83,1.62,1.75,1.62h.3l3.12-5.28h-1.95l-3.22,3.66Z" style="fill: #212120;"/>
    <polygon points="55.59 197.09 57.76 197.09 57.67 196.18 57.26 191.81 56.1 191.81 55.59 197.09" style="fill: #212120;"/>
    <path d="M65.33,197.09h.31c.92,0,1.67-.7,1.75-1.61l-3.23-3.67h-1.95l3.12,5.28Z" style="fill: #212120;"/>
  </g>
  <g id="e" data-name="Layer 8">
    <path d="M244.39,157.79c-13.88,0-25.17,11.29-25.17,25.17s11.29,25.17,25.17,25.17,25.17-11.29,25.17-25.17-11.29-25.17-25.17-25.17Z" style="fill: #212120;"/>
    <path d="M244.39,162.22c-11.44,0-20.74,9.3-20.74,20.73s9.3,20.74,20.74,20.74,20.73-9.3,20.73-20.74-9.3-20.73-20.73-20.73Z" style="fill: #ababad;"/>
    <path d="M244.39,190.35c-4.08,0-7.4-3.32-7.4-7.4s3.32-7.4,7.4-7.4,7.4,3.32,7.4,7.4-3.32,7.4-7.4,7.4Z" style="fill: #212120;"/>
    <path d="M244.39,179.87c-1.7,0-3.08,1.38-3.08,3.08s1.38,3.08,3.08,3.08,3.08-1.38,3.08-3.08-1.38-3.08-3.08-3.08Z" style="fill: #c9c9c9;"/>
    <path d="M245.34,190.28l1.08,11.48c2.62-.27,5.1-1.08,7.39-2.4l-5.87-9.93c-.8.45-1.7.73-2.61.84Z" style="fill: #231f20;"/>
    <path d="M234.97,199.36c2.28,1.32,4.76,2.12,7.39,2.41l1.09-11.48c-.91-.11-1.8-.4-2.61-.84l-5.88,9.92Z" style="fill: #231f20;"/>
    <path d="M251.66,184.32l11.26,2.52c.54-2.56.54-5.24,0-7.77l-11.26,2.52c.17.9.17,1.84,0,2.73Z" style="fill: #c9c9c9;"/>
    <path d="M251.07,179.79l10.59-4.58c-1.07-2.39-2.64-4.56-4.57-6.29l-7.63,8.66c.67.63,1.22,1.39,1.61,2.21Z" style="fill: #c9c9c9;"/>
    <path d="M247.94,176.47l5.87-9.93c-2.27-1.3-4.82-2.13-7.39-2.4l-1.09,11.49c.91.12,1.8.4,2.6.84Z" style="fill: #c9c9c9;"/>
    <path d="M243.45,175.62l-1.08-11.49c-2.6.28-5.15,1.11-7.39,2.4l5.88,9.93c.81-.44,1.7-.73,2.6-.85Z" style="fill: #c9c9c9;"/>
    <path d="M239.32,177.58l-7.63-8.66c-1.94,1.76-3.52,3.92-4.57,6.29l10.59,4.58c.39-.83.94-1.59,1.61-2.21Z" style="fill: #c9c9c9;"/>
    <path d="M237.13,181.58l-11.26-2.52c-.54,2.56-.54,5.24,0,7.77l11.26-2.52c-.17-.9-.17-1.84,0-2.73Z" style="fill: #c9c9c9;"/>
    <path d="M231.76,186.03c.15.63.35,1.25.6,1.86l5.14-2.23c-.11-.29-.2-.57-.27-.85l-5.47,1.22Z" style="fill: #212120;"/>
    <path d="M231.76,179.87l5.47,1.22c.07-.29.16-.57.27-.85l-5.14-2.22c-.25.59-.45,1.21-.6,1.85Z" style="fill: #212120;"/>
    <path d="M235.99,173.03l3.71,4.21c.22-.19.46-.36.72-.52l-2.85-4.83c-.54.33-1.07.71-1.57,1.14Z" style="fill: #212120;"/>
    <path d="M243.42,169.99l.53,5.59c.28-.02.61-.02.89,0l.52-5.59c-.64-.05-1.31-.05-1.94,0Z" style="fill: #212120;"/>
    <path d="M248.37,176.72c.25.16.49.33.72.53l3.72-4.22c-.53-.44-1.06-.82-1.59-1.14l-2.85,4.84Z" style="fill: #212120;"/>
    <path d="M251.27,185.66l5.16,2.23c.25-.61.45-1.23.6-1.85l-5.49-1.23c-.07.28-.16.57-.27.85Z" style="fill: #212120;"/>
    <path d="M251.27,180.25c.11.28.2.56.27.85l5.49-1.23c-.15-.64-.35-1.26-.6-1.85l-5.16,2.23Z" style="fill: #212120;"/>
    <path d="M249.47,188.33l7.63,8.66c1.94-1.76,3.52-3.92,4.57-6.29l-10.59-4.58c-.39.83-.94,1.59-1.61,2.21Z" style="fill: #c9c9c9;"/>
    <path d="M237.71,186.12l-10.59,4.58c1.07,2.39,2.64,4.56,4.57,6.29l7.63-8.66c-.67-.63-1.22-1.39-1.61-2.21Z" style="fill: #c9c9c9;"/>
    <path d="M240.85,189.44l-5.87,9.93c2.27,1.3,4.82,2.13,7.39,2.4l1.09-11.49c-.91-.12-1.8-.4-2.6-.84Z" style="fill: #c9c9c9;"/>
    <path d="M245.34,190.28l1.08,11.49c2.6-.28,5.15-1.11,7.39-2.4l-5.88-9.93c-.81.44-1.7.73-2.6.85Z" style="fill: #c9c9c9;"/>
    <path d="M248.38,189.19l2.86,4.83c.56-.34,1.09-.72,1.58-1.14l-3.72-4.21c-.23.2-.47.37-.72.52Z" style="fill: #212120;"/>
    <path d="M243.42,195.92c.64.05,1.31.05,1.94,0l-.52-5.59c-.27.02-.62.02-.89,0l-.53,5.59Z" style="fill: #212120;"/>
    <path d="M235.98,192.87c.5.43,1.03.82,1.58,1.15l2.85-4.83c-.24-.15-.48-.33-.72-.53l-3.71,4.21Z" style="fill: #212120;"/>
    <path d="M233.69,195.47c.07.9.83,1.62,1.75,1.62h.3l3.12-5.28h-1.95l-3.22,3.66Z" style="fill: #212120;"/>
    <polygon points="243.31 197.09 245.48 197.09 245.39 196.18 244.98 191.81 243.81 191.81 243.31 197.09" style="fill: #212120;"/>
    <path d="M253.05,197.09h.31c.92,0,1.67-.7,1.75-1.61l-3.23-3.67h-1.95l3.12,5.28Z" style="fill: #212120;"/>
  </g>
  <g id="f" data-name="Layer 9">
    <path d="M251.35,184.51l5.98,1.34c-.18.82-.44,1.61-.77,2.37l-5.62-2.43c.18-.41.32-.83.41-1.28Z" style="fill: none; stroke: #231f20; stroke-miterlimit: 10; stroke-width: .5px;"/>
    <circle cx="244.39" cy="182.96" r="3.33" style="fill: none; stroke: #231f20; stroke-linecap: round; stroke-linejoin: round; stroke-width: .5px;"/>
    <circle cx="244.39" cy="182.96" r="25.42" style="fill: none; stroke: #231f20; stroke-linecap: round; stroke-linejoin: round; stroke-width: .5px;"/>
    <path d="M237.24,182.95c0,.54.06,1.06.18,1.56l-11.75,2.63c-.3-1.35-.46-2.75-.46-4.19s.16-2.84.46-4.18l11.75,2.62c-.12.5-.18,1.02-.18,1.56Z" style="fill: none; stroke: #231f20; stroke-linecap: round; stroke-linejoin: round; stroke-width: .5px;"/>
    <path d="M239.66,188.31l-7.95,9.02c-2.1-1.84-3.8-4.15-4.92-6.76l11.04-4.78c.42.98,1.05,1.83,1.83,2.52Z" style="fill: none; stroke: #231f20; stroke-linecap: round; stroke-linejoin: round; stroke-width: .5px;"/>
    <path d="M239.67,177.6c-.78.68-1.42,1.54-1.84,2.51l-11.04-4.77c1.12-2.61,2.82-4.92,4.92-6.77l7.96,9.03Z" style="fill: none; stroke: #231f20; stroke-linecap: round; stroke-linejoin: round; stroke-width: .5px;"/>
    <path d="M243.72,190.06l-1.14,11.98c-2.89-.27-5.59-1.18-7.96-2.59l6.13-10.35c.88.53,1.89.87,2.97.96Z" style="fill: none; stroke: #231f20; stroke-linecap: round; stroke-linejoin: round; stroke-width: .5px;"/>
    <path d="M243.72,175.85c-1.08.09-2.09.43-2.97.96l-6.12-10.36c2.37-1.42,5.06-2.33,7.95-2.59l1.14,11.99Z" style="fill: none; stroke: #231f20; stroke-linecap: round; stroke-linejoin: round; stroke-width: .5px;"/>
    <path d="M254.15,199.46c-2.37,1.41-5.07,2.32-7.96,2.58l-1.13-11.98c1.08-.09,2.09-.43,2.97-.96l6.12,10.36Z" style="fill: none; stroke: #231f20; stroke-linecap: round; stroke-linejoin: round; stroke-width: .5px;"/>
    <path d="M254.15,166.44l-6.13,10.37c-.88-.53-1.88-.87-2.96-.96l1.13-11.99c2.89.26,5.59,1.17,7.96,2.58Z" style="fill: none; stroke: #231f20; stroke-linecap: round; stroke-linejoin: round; stroke-width: .5px;"/>
    <path d="M261.99,190.57c-1.12,2.61-2.82,4.92-4.92,6.77l-7.96-9.03c.78-.68,1.41-1.54,1.83-2.52l11.05,4.78Z" style="fill: none; stroke: #231f20; stroke-linecap: round; stroke-linejoin: round; stroke-width: .5px;"/>
    <path d="M261.99,175.34l-11.05,4.78c-.41-.97-1.04-1.84-1.83-2.52l7.95-9.03c2.11,1.84,3.81,4.15,4.93,6.77Z" style="fill: none; stroke: #231f20; stroke-linecap: round; stroke-linejoin: round; stroke-width: .5px;"/>
    <path d="M263.57,182.95c0,1.44-.16,2.84-.46,4.19l-11.76-2.63c.12-.5.18-1.02.18-1.56s-.06-1.05-.18-1.55l11.76-2.63c.3,1.34.46,2.74.46,4.18Z" style="fill: none; stroke: #231f20; stroke-linecap: round; stroke-linejoin: round; stroke-width: .5px;"/>
    <path d="M244.39,161.97c-11.59,0-20.99,9.39-20.99,20.98s9.4,20.99,20.99,20.99,20.98-9.4,20.98-20.99-9.39-20.98-20.98-20.98ZM261.99,175.34l-11.05,4.78c-.41-.97-1.04-1.84-1.83-2.52l7.95-9.03c2.11,1.84,3.81,4.15,4.93,6.77ZM246.19,163.86c2.89.26,5.59,1.17,7.96,2.58l-6.13,10.37c-.88-.53-1.88-.87-2.96-.96l1.13-11.99ZM242.58,163.86l1.14,11.99c-1.08.09-2.09.43-2.97.96l-6.12-10.36c2.37-1.42,5.06-2.33,7.95-2.59ZM231.71,168.57l7.96,9.03c-.78.68-1.42,1.54-1.84,2.51l-11.04-4.77c1.12-2.61,2.82-4.92,4.92-6.77ZM225.21,182.95c0-1.44.16-2.84.46-4.18l11.75,2.62c-.12.5-.18,1.02-.18,1.56s.06,1.06.18,1.56l-11.75,2.63c-.3-1.35-.46-2.75-.46-4.19ZM226.79,190.57l11.04-4.78c.42.98,1.05,1.83,1.83,2.52l-7.95,9.02c-2.1-1.84-3.8-4.15-4.92-6.76ZM242.58,202.04c-2.89-.27-5.59-1.18-7.96-2.59l6.13-10.35c.88.53,1.89.87,2.97.96l-1.14,11.98ZM246.19,202.04l-1.13-11.98c1.08-.09,2.09-.43,2.97-.96l6.12,10.36c-2.37,1.41-5.07,2.32-7.96,2.58ZM257.07,197.34l-7.96-9.03c.78-.68,1.41-1.54,1.83-2.52l11.05,4.78c-1.12,2.61-2.82,4.92-4.92,6.77ZM251.35,184.51c.12-.5.18-1.02.18-1.56s-.06-1.05-.18-1.55l11.76-2.63c.3,1.34.46,2.74.46,4.18s-.16,2.84-.46,4.19l-11.76-2.63Z" style="fill: none; stroke: #231f20; stroke-linecap: round; stroke-linejoin: round; stroke-width: .5px;"/>
    <path d="M237.24,182.95c0,.54.06,1.06.18,1.56l-11.75,2.63c-.3-1.35-.46-2.75-.46-4.19s.16-2.84.46-4.18l11.75,2.62c-.12.5-.18,1.02-.18,1.56Z" style="fill: none; stroke: #231f20; stroke-linecap: round; stroke-linejoin: round; stroke-width: .5px;"/>
    <path d="M239.66,188.31l-7.95,9.02c-2.1-1.84-3.8-4.15-4.92-6.76l11.04-4.78c.42.98,1.05,1.83,1.83,2.52Z" style="fill: none; stroke: #231f20; stroke-linecap: round; stroke-linejoin: round; stroke-width: .5px;"/>
    <path d="M239.67,177.6c-.78.68-1.42,1.54-1.84,2.51l-11.04-4.77c1.12-2.61,2.82-4.92,4.92-6.77l7.96,9.03Z" style="fill: none; stroke: #231f20; stroke-linecap: round; stroke-linejoin: round; stroke-width: .5px;"/>
    <path d="M243.72,190.06l-1.14,11.98c-2.89-.27-5.59-1.18-7.96-2.59l6.13-10.35c.88.53,1.89.87,2.97.96Z" style="fill: none; stroke: #231f20; stroke-linecap: round; stroke-linejoin: round; stroke-width: .5px;"/>
    <path d="M243.72,175.85c-1.08.09-2.09.43-2.97.96l-6.12-10.36c2.37-1.42,5.06-2.33,7.95-2.59l1.14,11.99Z" style="fill: none; stroke: #231f20; stroke-linecap: round; stroke-linejoin: round; stroke-width: .5px;"/>
    <path d="M254.15,199.46c-2.37,1.41-5.07,2.32-7.96,2.58l-1.13-11.98c1.08-.09,2.09-.43,2.97-.96l6.12,10.36Z" style="fill: none; stroke: #231f20; stroke-linecap: round; stroke-linejoin: round; stroke-width: .5px;"/>
    <path d="M254.15,166.44l-6.13,10.37c-.88-.53-1.88-.87-2.96-.96l1.13-11.99c2.89.26,5.59,1.17,7.96,2.58Z" style="fill: none; stroke: #231f20; stroke-linecap: round; stroke-linejoin: round; stroke-width: .5px;"/>
    <path d="M261.99,190.57c-1.12,2.61-2.82,4.92-4.92,6.77l-7.96-9.03c.78-.68,1.41-1.54,1.83-2.52l11.05,4.78Z" style="fill: none; stroke: #231f20; stroke-linecap: round; stroke-linejoin: round; stroke-width: .5px;"/>
    <path d="M261.99,175.34l-11.05,4.78c-.41-.97-1.04-1.84-1.83-2.52l7.95-9.03c2.11,1.84,3.81,4.15,4.93,6.77Z" style="fill: none; stroke: #231f20; stroke-linecap: round; stroke-linejoin: round; stroke-width: .5px;"/>
    <path d="M263.57,182.95c0,1.44-.16,2.84-.46,4.19l-11.76-2.63c.12-.5.18-1.02.18-1.56s-.06-1.05-.18-1.55l11.76-2.63c.3,1.34.46,2.74.46,4.18Z" style="fill: none; stroke: #231f20; stroke-linecap: round; stroke-linejoin: round; stroke-width: .5px;"/>
    <line x1="242.58" y1="202.05" x2="242.58" y2="202.04" style="fill: none; stroke: #231f20; stroke-linecap: round; stroke-linejoin: round; stroke-width: .5px;"/>
    <line x1="246.19" y1="202.05" x2="246.19" y2="202.04" style="fill: none; stroke: #231f20; stroke-linecap: round; stroke-linejoin: round; stroke-width: .5px;"/>
    <line x1="257.07" y1="168.56" x2="257.06" y2="168.57" style="fill: none; stroke: #231f20; stroke-linecap: round; stroke-linejoin: round; stroke-width: .5px;"/>
    <line x1="234.63" y1="166.45" x2="234.62" y2="166.44" style="fill: none; stroke: #231f20; stroke-linecap: round; stroke-linejoin: round; stroke-width: .5px;"/>
    <line x1="231.71" y1="168.57" x2="231.7" y2="168.56" style="fill: none; stroke: #231f20; stroke-linecap: round; stroke-linejoin: round; stroke-width: .5px;"/>
    <line x1="231.71" y1="197.33" x2="231.7" y2="197.34" style="fill: none; stroke: #231f20; stroke-linecap: round; stroke-linejoin: round; stroke-width: .5px;"/>
    <line x1="234.62" y1="199.46" x2="234.62" y2="199.45" style="fill: none; stroke: #231f20; stroke-linecap: round; stroke-linejoin: round; stroke-width: .5px;"/>
    <path d="M237.42,184.51c.09.45.23.87.41,1.28l-5.6,2.43c-.33-.76-.59-1.55-.77-2.38l5.96-1.33Z" style="fill: none; stroke: #231f20; stroke-miterlimit: 10; stroke-width: .5px;"/>
    <path d="M232.23,177.69l5.6,2.42c-.18.41-.32.84-.41,1.28l-5.96-1.33c.18-.82.44-1.62.77-2.37Z" style="fill: none; stroke: #231f20; stroke-miterlimit: 10; stroke-width: .5px;"/>
    <path d="M237.64,171.55l3.11,5.26c-.39.22-.75.48-1.08.79l-4.04-4.59c.62-.55,1.29-1.04,2.01-1.46Z" style="fill: none; stroke: #231f20; stroke-miterlimit: 10; stroke-width: .5px;"/>
    <path d="M244.39,169.7c.42,0,.83.02,1.24.06l-.57,6.09c-.22-.03-.44-.04-.67-.04s-.45.01-.67.04l-.58-6.09c.41-.04.83-.06,1.25-.06Z" style="fill: none; stroke: #231f20; stroke-miterlimit: 10; stroke-width: .5px;"/>
    <path d="M253.16,173l-4.05,4.6c-.34-.31-.7-.57-1.09-.79l3.11-5.27c.72.42,1.4.92,2.03,1.46Z" style="fill: none; stroke: #231f20; stroke-miterlimit: 10; stroke-width: .5px;"/>
    <path d="M250.94,180.12l5.62-2.43c.33.75.59,1.55.77,2.37l-5.98,1.34c-.09-.44-.23-.87-.41-1.28Z" style="fill: none; stroke: #231f20; stroke-miterlimit: 10; stroke-width: .5px;"/>
    <circle cx="244.39" cy="182.96" r="7.15" style="fill: none; stroke: #231f20; stroke-linecap: round; stroke-linejoin: round; stroke-width: .5px;"/>
    <path d="M239.29,191.56l-1.65,2.8-1.77,2.98h-.44c-1.09,0-1.98-.87-2-1.96l2.19-2.49,1.17-1.33h2.5Z" style="fill: none; stroke: #231f20; stroke-linecap: round; stroke-linejoin: round; stroke-width: .5px;"/>
    <polygon points="245.75 197.34 243.03 197.34 243.14 196.15 243.58 191.56 245.2 191.56 245.63 196.15 245.75 197.34" style="fill: none; stroke: #231f20; stroke-linecap: round; stroke-linejoin: round; stroke-width: .5px;"/>
    <path d="M255.35,195.39c-.03,1.09-.92,1.95-2,1.95h-.45l-1.76-2.98-1.66-2.8h2.5l1.18,1.34,2.19,2.49Z" style="fill: none; stroke: #231f20; stroke-linecap: round; stroke-linejoin: round; stroke-width: .5px;"/>
  </g>
  <g id="g" data-name="Wheel Outline">
    <path d="M63.64,184.51l5.98,1.34c-.18.82-.44,1.61-.77,2.37l-5.62-2.43c.18-.41.32-.83.41-1.28Z" style="fill: none; stroke: #231f20; stroke-miterlimit: 10; stroke-width: .5px;"/>
    <circle cx="56.68" cy="182.95" r="3.33" style="fill: none; stroke: #231f20; stroke-linecap: round; stroke-linejoin: round; stroke-width: .5px;"/>
    <circle cx="56.68" cy="182.95" r="25.42" style="fill: none; stroke: #231f20; stroke-linecap: round; stroke-linejoin: round; stroke-width: .5px;"/>
    <path d="M49.53,182.95c0,.54.06,1.06.18,1.56l-11.75,2.63c-.3-1.35-.46-2.75-.46-4.19s.16-2.84.46-4.18l11.75,2.62c-.12.5-.18,1.02-.18,1.56Z" style="fill: none; stroke: #231f20; stroke-linecap: round; stroke-linejoin: round; stroke-width: .5px;"/>
    <path d="M51.95,188.31l-7.95,9.02c-2.1-1.84-3.8-4.15-4.92-6.76l11.04-4.78c.42.98,1.05,1.83,1.83,2.52Z" style="fill: none; stroke: #231f20; stroke-linecap: round; stroke-linejoin: round; stroke-width: .5px;"/>
    <path d="M51.96,177.6c-.78.68-1.42,1.54-1.84,2.51l-11.04-4.77c1.12-2.61,2.82-4.92,4.92-6.77l7.96,9.03Z" style="fill: none; stroke: #231f20; stroke-linecap: round; stroke-linejoin: round; stroke-width: .5px;"/>
    <path d="M56.01,190.06l-1.14,11.98c-2.89-.27-5.59-1.18-7.96-2.59l6.13-10.35c.88.53,1.89.87,2.97.96Z" style="fill: none; stroke: #231f20; stroke-linecap: round; stroke-linejoin: round; stroke-width: .5px;"/>
    <path d="M56.01,175.85c-1.08.09-2.09.43-2.97.96l-6.12-10.36c2.37-1.42,5.06-2.33,7.95-2.59l1.14,11.99Z" style="fill: none; stroke: #231f20; stroke-linecap: round; stroke-linejoin: round; stroke-width: .5px;"/>
    <path d="M66.44,199.46c-2.37,1.41-5.07,2.32-7.96,2.58l-1.13-11.98c1.08-.09,2.09-.43,2.97-.96l6.12,10.36Z" style="fill: none; stroke: #231f20; stroke-linecap: round; stroke-linejoin: round; stroke-width: .5px;"/>
    <path d="M66.44,166.44l-6.13,10.37c-.88-.53-1.88-.87-2.96-.96l1.13-11.99c2.89.26,5.59,1.17,7.96,2.58Z" style="fill: none; stroke: #231f20; stroke-linecap: round; stroke-linejoin: round; stroke-width: .5px;"/>
    <path d="M74.28,190.57c-1.12,2.61-2.82,4.92-4.92,6.77l-7.96-9.03c.78-.68,1.41-1.54,1.83-2.52l11.05,4.78Z" style="fill: none; stroke: #231f20; stroke-linecap: round; stroke-linejoin: round; stroke-width: .5px;"/>
    <path d="M74.28,175.34l-11.05,4.78c-.41-.97-1.04-1.84-1.83-2.52l7.95-9.03c2.11,1.84,3.81,4.15,4.93,6.77Z" style="fill: none; stroke: #231f20; stroke-linecap: round; stroke-linejoin: round; stroke-width: .5px;"/>
    <path d="M75.86,182.95c0,1.44-.16,2.84-.46,4.19l-11.76-2.63c.12-.5.18-1.02.18-1.56s-.06-1.05-.18-1.55l11.76-2.63c.3,1.34.46,2.74.46,4.18Z" style="fill: none; stroke: #231f20; stroke-linecap: round; stroke-linejoin: round; stroke-width: .5px;"/>
    <path d="M56.68,161.97c-11.59,0-20.99,9.39-20.99,20.98s9.4,20.99,20.99,20.99,20.98-9.4,20.98-20.99-9.39-20.98-20.98-20.98ZM74.28,175.34l-11.05,4.78c-.41-.97-1.04-1.84-1.83-2.52l7.95-9.03c2.11,1.84,3.81,4.15,4.93,6.77ZM58.48,163.86c2.89.26,5.59,1.17,7.96,2.58l-6.13,10.37c-.88-.53-1.88-.87-2.96-.96l1.13-11.99ZM54.87,163.86l1.14,11.99c-1.08.09-2.09.43-2.97.96l-6.12-10.36c2.37-1.42,5.06-2.33,7.95-2.59ZM44,168.57l7.96,9.03c-.78.68-1.42,1.54-1.84,2.51l-11.04-4.77c1.12-2.61,2.82-4.92,4.92-6.77ZM37.5,182.95c0-1.44.16-2.84.46-4.18l11.75,2.62c-.12.5-.18,1.02-.18,1.56s.06,1.06.18,1.56l-11.75,2.63c-.3-1.35-.46-2.75-.46-4.19ZM39.08,190.57l11.04-4.78c.42.98,1.05,1.83,1.83,2.52l-7.95,9.02c-2.1-1.84-3.8-4.15-4.92-6.76ZM54.87,202.04c-2.89-.27-5.59-1.18-7.96-2.59l6.13-10.35c.88.53,1.89.87,2.97.96l-1.14,11.98ZM58.48,202.04l-1.13-11.98c1.08-.09,2.09-.43,2.97-.96l6.12,10.36c-2.37,1.41-5.07,2.32-7.96,2.58ZM69.36,197.34l-7.96-9.03c.78-.68,1.41-1.54,1.83-2.52l11.05,4.78c-1.12,2.61-2.82,4.92-4.92,6.77ZM63.64,184.51c.12-.5.18-1.02.18-1.56s-.06-1.05-.18-1.55l11.76-2.63c.3,1.34.46,2.74.46,4.18s-.16,2.84-.46,4.19l-11.76-2.63Z" style="fill: none; stroke: #231f20; stroke-linecap: round; stroke-linejoin: round; stroke-width: .5px;"/>
    <path d="M49.53,182.95c0,.54.06,1.06.18,1.56l-11.75,2.63c-.3-1.35-.46-2.75-.46-4.19s.16-2.84.46-4.18l11.75,2.62c-.12.5-.18,1.02-.18,1.56Z" style="fill: none; stroke: #231f20; stroke-linecap: round; stroke-linejoin: round; stroke-width: .5px;"/>
    <path d="M51.95,188.31l-7.95,9.02c-2.1-1.84-3.8-4.15-4.92-6.76l11.04-4.78c.42.98,1.05,1.83,1.83,2.52Z" style="fill: none; stroke: #231f20; stroke-linecap: round; stroke-linejoin: round; stroke-width: .5px;"/>
    <path d="M51.96,177.6c-.78.68-1.42,1.54-1.84,2.51l-11.04-4.77c1.12-2.61,2.82-4.92,4.92-6.77l7.96,9.03Z" style="fill: none; stroke: #231f20; stroke-linecap: round; stroke-linejoin: round; stroke-width: .5px;"/>
    <path d="M56.01,190.06l-1.14,11.98c-2.89-.27-5.59-1.18-7.96-2.59l6.13-10.35c.88.53,1.89.87,2.97.96Z" style="fill: none; stroke: #231f20; stroke-linecap: round; stroke-linejoin: round; stroke-width: .5px;"/>
    <path d="M56.01,175.85c-1.08.09-2.09.43-2.97.96l-6.12-10.36c2.37-1.42,5.06-2.33,7.95-2.59l1.14,11.99Z" style="fill: none; stroke: #231f20; stroke-linecap: round; stroke-linejoin: round; stroke-width: .5px;"/>
    <path d="M66.44,199.46c-2.37,1.41-5.07,2.32-7.96,2.58l-1.13-11.98c1.08-.09,2.09-.43,2.97-.96l6.12,10.36Z" style="fill: none; stroke: #231f20; stroke-linecap: round; stroke-linejoin: round; stroke-width: .5px;"/>
    <path d="M66.44,166.44l-6.13,10.37c-.88-.53-1.88-.87-2.96-.96l1.13-11.99c2.89.26,5.59,1.17,7.96,2.58Z" style="fill: none; stroke: #231f20; stroke-linecap: round; stroke-linejoin: round; stroke-width: .5px;"/>
    <path d="M74.28,190.57c-1.12,2.61-2.82,4.92-4.92,6.77l-7.96-9.03c.78-.68,1.41-1.54,1.83-2.52l11.05,4.78Z" style="fill: none; stroke: #231f20; stroke-linecap: round; stroke-linejoin: round; stroke-width: .5px;"/>
    <path d="M74.28,175.34l-11.05,4.78c-.41-.97-1.04-1.84-1.83-2.52l7.95-9.03c2.11,1.84,3.81,4.15,4.93,6.77Z" style="fill: none; stroke: #231f20; stroke-linecap: round; stroke-linejoin: round; stroke-width: .5px;"/>
    <path d="M75.86,182.95c0,1.44-.16,2.84-.46,4.19l-11.76-2.63c.12-.5.18-1.02.18-1.56s-.06-1.05-.18-1.55l11.76-2.63c.3,1.34.46,2.74.46,4.18Z" style="fill: none; stroke: #231f20; stroke-linecap: round; stroke-linejoin: round; stroke-width: .5px;"/>
    <line x1="54.87" y1="202.05" x2="54.87" y2="202.04" style="fill: none; stroke: #231f20; stroke-linecap: round; stroke-linejoin: round; stroke-width: .5px;"/>
    <line x1="58.48" y1="202.05" x2="58.48" y2="202.04" style="fill: none; stroke: #231f20; stroke-linecap: round; stroke-linejoin: round; stroke-width: .5px;"/>
    <line x1="69.36" y1="168.56" x2="69.35" y2="168.57" style="fill: none; stroke: #231f20; stroke-linecap: round; stroke-linejoin: round; stroke-width: .5px;"/>
    <line x1="46.92" y1="166.45" x2="46.91" y2="166.44" style="fill: none; stroke: #231f20; stroke-linecap: round; stroke-linejoin: round; stroke-width: .5px;"/>
    <line x1="44" y1="168.57" x2="43.99" y2="168.56" style="fill: none; stroke: #231f20; stroke-linecap: round; stroke-linejoin: round; stroke-width: .5px;"/>
    <line x1="44" y1="197.33" x2="43.99" y2="197.34" style="fill: none; stroke: #231f20; stroke-linecap: round; stroke-linejoin: round; stroke-width: .5px;"/>
    <line x1="46.91" y1="199.46" x2="46.91" y2="199.45" style="fill: none; stroke: #231f20; stroke-linecap: round; stroke-linejoin: round; stroke-width: .5px;"/>
    <path d="M49.71,184.51c.09.45.23.87.41,1.28l-5.6,2.43c-.33-.76-.59-1.55-.77-2.38l5.96-1.33Z" style="fill: none; stroke: #231f20; stroke-miterlimit: 10; stroke-width: .5px;"/>
    <path d="M44.52,177.69l5.6,2.42c-.18.41-.32.84-.41,1.28l-5.96-1.33c.18-.82.44-1.62.77-2.37Z" style="fill: none; stroke: #231f20; stroke-miterlimit: 10; stroke-width: .5px;"/>
    <path d="M49.93,171.55l3.11,5.26c-.39.22-.75.48-1.08.79l-4.04-4.59c.62-.55,1.29-1.04,2.01-1.46Z" style="fill: none; stroke: #231f20; stroke-miterlimit: 10; stroke-width: .5px;"/>
    <path d="M56.68,169.7c.42,0,.83.02,1.24.06l-.57,6.09c-.22-.03-.44-.04-.67-.04s-.45.01-.67.04l-.58-6.09c.41-.04.83-.06,1.25-.06Z" style="fill: none; stroke: #231f20; stroke-miterlimit: 10; stroke-width: .5px;"/>
    <path d="M65.45,173l-4.05,4.6c-.34-.31-.7-.57-1.09-.79l3.11-5.27c.72.42,1.4.92,2.03,1.46Z" style="fill: none; stroke: #231f20; stroke-miterlimit: 10; stroke-width: .5px;"/>
    <path d="M63.23,180.12l5.62-2.43c.33.75.59,1.55.77,2.37l-5.98,1.34c-.09-.44-.23-.87-.41-1.28Z" style="fill: none; stroke: #231f20; stroke-miterlimit: 10; stroke-width: .5px;"/>
    <circle cx="56.68" cy="182.95" r="7.15" style="fill: none; stroke: #231f20; stroke-linecap: round; stroke-linejoin: round; stroke-width: .5px;"/>
    <path d="M51.58,191.56l-1.65,2.8-1.77,2.98h-.44c-1.09,0-1.98-.87-2-1.96l2.19-2.49,1.17-1.33h2.5Z" style="fill: none; stroke: #231f20; stroke-linecap: round; stroke-linejoin: round; stroke-width: .5px;"/>
    <polygon points="58.04 197.34 55.32 197.34 55.43 196.15 55.87 191.56 57.49 191.56 57.92 196.15 58.04 197.34" style="fill: none; stroke: #231f20; stroke-linecap: round; stroke-linejoin: round; stroke-width: .5px;"/>
    <path d="M67.64,195.39c-.03,1.09-.92,1.95-2,1.95h-.45l-1.76-2.98-1.66-2.8h2.5l1.18,1.34,2.19,2.49Z" style="fill: none; stroke: #231f20; stroke-linecap: round; stroke-linejoin: round; stroke-width: .5px;"/>
  </g>
</svg>