<?xml version="1.0" encoding="UTF-8"?>
<svg xmlns="http://www.w3.org/2000/svg" xmlns:xlink="http://www.w3.org/1999/xlink" viewBox="0 0 1920 1080">
  <defs>
    <style>
      .g {
        fill: #a9b9bf;
      }

      .g, .h {
        stroke-width: 5px;
      }

      .g, .h, .i, .j, .k, .l, .m {
        stroke: #000;
        stroke-linecap: round;
        stroke-linejoin: round;
      }

      .h, .i, .j, .k, .l, .m {
        fill: none;
      }

      .n {
        fill: url(#c);
      }

      .o {
        fill: url(#d);
      }

      .p {
        fill: url(#e);
      }

      .i {
        stroke-width: 3px;
      }

      .j {
        stroke-width: 4px;
      }

      .k {
        stroke-width: 6px;
      }

      .l {
        stroke-width: 8px;
      }

      .q {
        fill: #636c70;
      }

      .m {
        stroke-width: 7px;
      }
    </style>
    <linearGradient id="c" data-name="Безымянный градиент 37" x1="640.82" y1="415.87" x2="1279.18" y2="415.87" gradientUnits="userSpaceOnUse">
      <stop offset="0" stop-color="#636c70"/>
      <stop offset="1" stop-color="#ccc"/>
    </linearGradient>
    <linearGradient id="d" data-name="Безымянный градиент 5" x1="556.21" y1="721.23" x2="1363.79" y2="721.23" gradientUnits="userSpaceOnUse">
      <stop offset="0" stop-color="#aa3b0e"/>
      <stop offset="1" stop-color="#feb510"/>
    </linearGradient>
    <radialGradient id="e" data-name="Безымянный градиент 9" cx="960" cy="599.51" fx="960" fy="599.51" r="301.97" gradientUnits="userSpaceOnUse">
      <stop offset="0" stop-color="#00bcff"/>
      <stop offset=".85" stop-color="#0698e3"/>
    </radialGradient>
  </defs>
  <g id="b" data-name="Colours">
    <path class="q" d="M1380.12,449.68c-1.57,1.3-10.34,6.24-51.9,5.13.38-8.81-3.43-15.8-7.17-20.48l46.98,1.56c2.02.86,9.9,4.75,12.1,13.8Z"/>
    <path class="q" d="M960,499.88c-54.06-.26-55.24-.02-55.69.07-1.25.25-1.78.37-10.26,10.92-11.79,1.05-79.71-1.34-135.26-3.72,18.37-3.83,43.53-8.6,57.42-9.19,23.71-1.01,142.56,0,143.76,0,0,0,.02,0,.03,0,0,0,.02,0,.03,0,1.2-.01,120.05-1.01,143.76,0,13.89.59,39.05,5.36,57.42,9.19-55.55,2.38-123.48,4.78-135.26,3.72-8.47-10.55-9.01-10.67-10.26-10.92-.45-.09-1.62-.33-55.69-.07Z"/>
    <path class="q" d="M752.35,536.64c-2.07-3.6-7.04-13.9-11.85-24.29,29.52,1.33,120.24,5.25,148.69,4.62-2.3,2.89-4.97,6.28-8.1,10.26-8,10.16-15.98,20.4-18.98,24.25l-109.76-14.84Z"/>
    <path class="q" d="M1179.49,512.35c-4.81,10.39-9.78,20.69-11.85,24.29l-109.76,14.84c-3-3.85-10.98-14.09-18.98-24.25-3.14-3.98-5.81-7.37-8.1-10.26,28.45.63,119.17-3.29,148.69-4.62Z"/>
    <path class="q" d="M1187,510.37s0-.01,0-.02c.08-.17.14-.35.19-.54,0-.03,0-.07.01-.1.01-.07.02-.14.03-.21.02-.17.03-.33.02-.5,0-.07,0-.14-.02-.21-.02-.18-.06-.36-.11-.54-.01-.05-.02-.09-.04-.14-.08-.22-.18-.42-.31-.62,0-.01-.01-.03-.02-.04-.02-.04-.06-.06-.08-.1-.1-.14-.22-.27-.35-.39-.05-.05-.11-.1-.16-.15-.13-.11-.28-.21-.43-.29-.05-.03-.09-.06-.14-.08-.2-.1-.41-.18-.63-.23-2.31-.54-56.86-13.22-80.92-14.25-23.8-1.01-142.2-.02-144.04,0-1.87-.02-120.24-1.01-144.04,0-24.06,1.02-78.61,13.71-80.92,14.25-.22.05-.43.13-.63.23-.05.02-.09.05-.13.08-.16.09-.31.19-.45.3-.05.04-.1.09-.16.14-.13.12-.25.26-.36.4-.02.03-.06.06-.08.09,0,.01-.01.03-.02.04-.13.19-.23.4-.31.62-.02.05-.02.09-.04.14-.05.17-.09.35-.11.54,0,.07-.01.14-.02.21,0,.16,0,.33.02.49,0,.07.01.14.03.22,0,.03,0,.07.01.1.04.19.11.37.19.54,0,0,0,.02,0,.02,5.87,12.85,9.56,20.59,12.01,25.27l-47.7-6.45-53.99-61.64c39.17,4.38,197.56,20.71,316.69,12.78,22.7,1.51,46.81,2.14,71.27,2.14,103.88,0,213.71-11.37,245.42-14.92l-53.99,61.64-47.7,6.45c2.45-4.68,6.14-12.42,12.01-25.27Z"/>
    <path class="n" d="M960.23,473.34c-.08,0-.15,0-.23,0-.08,0-.15-.01-.23,0-122.28,8.18-286.5-9.4-318.94-13.1,16.92-24.9,50.25-71.54,74.43-97.48,13.67-1.75,162.74-8.9,218.53-5.65l6.15,22.44c.42,1.52,1.8,2.58,3.38,2.58h33.4c1.58,0,2.96-1.05,3.38-2.58l6.15-22.44c55.79-3.25,204.85,3.9,218.53,5.65,24.18,25.94,57.51,72.58,74.43,97.48-32.45,3.7-196.66,21.28-318.94,13.1Z"/>
    <path class="q" d="M772.61,336.59c.06-.01.12,0,.19-.02.03,0,.1-.02.15-.03,27.31-4.45,68.24-8.21,127.41-7.53h119.23s.01,0,.02,0c0,0,.01,0,.02,0,59.15-.69,100.07,3.07,127.38,7.52.07.02.15.03.19.04.08.02.15.01.23.03,16.28,2.67,27.69,5.58,35.21,7.92,3.67,1.14,8.7,4.94,14.59,10.58-4.2-.28-10.02-.62-18.13-1.06-18.27-.99-41.47-2.01-63.65-2.8-35.74-1.28-100.44-3.1-132.17-.96-1.49.1-2.75,1.13-3.14,2.57l-6.1,22.28h-28.06l-6.1-22.28c-.39-1.44-1.65-2.47-3.14-2.57-31.73-2.14-96.43-.32-132.18.96-22.18.79-45.38,1.81-63.65,2.8-8.11.44-13.93.77-18.13,1.06,5.89-5.64,10.92-9.44,14.59-10.58,7.53-2.34,18.95-5.25,35.25-7.92Z"/>
    <polygon class="q" points="927.64 312.33 960 312.33 992.36 312.33 1007.58 322.01 960 322.01 912.42 322.01 927.64 312.33"/>
    <path d="M1212.79,361.17l13.07.85v6.08l-4.83,2.42c-2.79-3.27-5.55-6.41-8.24-9.36Z"/>
    <path d="M1225.86,358.01l-17.04-1.11s-.06-.05-.09-.08c-.93-.98-1.86-1.92-2.77-2.85,9.56.7,16.84,1.9,19.89,2.46v1.58Z"/>
    <path d="M711.27,356.83s-.06.05-.09.08l-17.04,1.11v-1.58c3.06-.56,10.33-1.76,19.89-2.46-.91.92-1.83,1.87-2.77,2.84Z"/>
    <path d="M694.14,362.02l13.07-.85c-2.69,2.95-5.45,6.08-8.24,9.36l-4.83-2.42v-6.08Z"/>
    <path d="M1226.62,331.08l3.92,2.78v39.06l-5.35,2.53c-.5-.6-1-1.2-1.49-1.79l5.07-2.54c.68-.34,1.1-1.03,1.1-1.79v-14.55s0-.01,0-.02c0-.18-.03-.35-.08-.52-.01-.04-.02-.07-.03-.11-.06-.17-.14-.33-.24-.48,0,0,0-.02-.01-.02l-2.88-4.08v-18.47Z"/>
    <path d="M1222.98,351.34l.43.61c-4.66-.75-12.36-1.78-21.83-2.25-3.19-2.99-6.19-5.54-8.94-7.53,14.09,2.47,25.92,5.27,29.97,6.27v1.76c0,.41.13.82.37,1.15Z"/>
    <path class="q" d="M1107.31,324.74c-23.25-1.95-51.85-3.12-86.71-2.74l-14.13-8.99,85.31,4.38c4.21,2.61,9.68,5.1,15.54,7.36Z"/>
    <path class="q" d="M828.23,317.38l85.31-4.38-14.13,8.99c-34.87-.38-63.46.79-86.71,2.74,5.86-2.26,11.33-4.74,15.54-7.36Z"/>
    <path d="M727.36,342.17c-2.76,1.99-5.76,4.54-8.94,7.53-9.47.48-17.17,1.5-21.83,2.25l.43-.61c.24-.34.37-.74.37-1.15v-1.76c4.06-.99,15.88-3.79,29.97-6.27Z"/>
    <path d="M689.47,372.93v-39.06l3.91-2.78v18.47l-2.88,4.08s0,.02-.01.02c-.1.15-.18.31-.24.48-.01.04-.02.07-.03.11-.05.17-.08.35-.08.53,0,0,0,0,0,.01h0v14.55c0,.76.43,1.45,1.1,1.79l5.07,2.54c-.5.59-1,1.19-1.49,1.79l-5.35-2.53Z"/>
    <path class="q" d="M551.98,435.88l46.98-1.56c-3.75,4.68-7.56,11.67-7.17,20.48-41.56,1.11-50.33-3.83-51.9-5.13,2.21-9.06,10.1-12.95,12.1-13.8Z"/>
    <path class="q" d="M552.3,472.31c-6.41-4.37-9.53-9.89-11.05-14.28,9.42,3.21,26.72,4.46,51.62,3.74l1.96,9.02-1.26,1.51h-41.27Z"/>
    <path class="q" d="M601.91,470.39l-2.79-12.86c-1.86-10.22,4-17.87,7.78-21.6,2.73,4.7,5.71,9.88,7.03,12.3-.76,1.3-2.02,3.36-3.12,5.12-.79,1.25-.71,2.87.21,4.04,4.86,6.16,7.76,9.63,9.61,11.62l-4.89,8.13-6.66,4.76-7.16-11.5Z"/>
    <path class="q" d="M560,739.03l-2.13-9.34,19.8,11.1c.52.29,1.11.45,1.71.45h7.83c1.77,0,3.26-1.32,3.47-3.08,2.92-24,37.18-64.46,44-72.3l108.56,11.43-152.33,69.55c-8.19-.23-21.74-2.17-25.57-6.6-.66-.77-1.63-1.21-2.65-1.21h-2.7Z"/>
    <path d="M555.38,605.26l4.29,3.68c.44.38.59.99.37,1.52-.23.57-.69.75-.94.81s-.75.1-1.2-.31l-2.61-2.34c.03-1.12.06-2.24.1-3.36Z"/>
    <path d="M634,770.09l15.33,1.45c-5.18.77-12.58,1.52-21,1.94.08-.07.15-.15.22-.22.49-.32,1.84-1.14,5.46-3.17Z"/>
    <polygon class="q" points="960 686.12 1086.56 686.12 1086.56 713.84 960 713.84 833.44 713.84 833.44 686.12 960 686.12"/>
    <path class="q" d="M829.94,720.84h260.13c1.93,0,3.5-1.57,3.5-3.5v-31.22h34.44c8.11,4.26,78.25,41.1,124.15,65.64l-118.56,11.2-14.71-3.92c-.29-.08-.59-.12-.89-.12h-2.47v-19.11c0-1.25-.66-2.4-1.74-3.03l-15.82-9.19c-.53-.31-1.14-.47-1.76-.47h-272.38c-.62,0-1.22.16-1.76.47l-15.82,9.19c-1.08.63-1.74,1.78-1.74,3.03v19.11h-2.47c-.3,0-.6.05-.89.12l-14.71,3.92-118.56-11.2c45.9-24.54,116.04-61.38,124.15-65.64h34.44v31.22c0,1.93,1.57,3.5,3.5,3.5Z"/>
    <path d="M1291.44,773.24c.07.08.15.16.23.23-8.42-.42-15.82-1.17-20.99-1.94l15.32-1.45c3.58,2,4.94,2.83,5.44,3.15Z"/>
    <path d="M1255.48,765.94c-3.18-1.47-7.59-3.45-13.71-6.17l21.54-2.03c4.3,2.31,8.25,4.45,11.77,6.36l-19.59,1.85Z"/>
    <polygon class="q" points="960.01 758.58 960 758.58 959.99 758.58 811.48 758.9 811.48 741.82 824.75 734.12 960 734.12 1095.25 734.12 1108.51 741.82 1108.51 758.9 960.01 758.58"/>
    <path d="M656.69,757.73l21.54,2.03c-6.13,2.73-10.54,4.71-13.72,6.17l-19.59-1.85c3.51-1.91,7.46-4.04,11.77-6.36Z"/>
    <path d="M677.16,780.21c0,3.41-3.89,6.29-8.5,6.29h-94.03c-4.6,0-8.5-2.88-8.5-6.29v-6.82c2.34,1.05,4.84,1.96,7.5,2.72,18.12,5.17,41.75,4.97,54.22,4.39,7.88-.37,15.67-1.07,21.93-1.99,7.75-1.13,10.17-2.07,11.29-3.14.51-.28,1.75-.91,4.69-2.29l11.39,1.08v6.05Z"/>
    <path class="q" d="M1133.59,777.46l-14.71-3.92c-.29-.08-.59-.12-.89-.12l-157.98-.34h-.01l-157.98.34c-.3,0-.6.04-.89.12l-14.71,3.92-102.25-9.66v-5.28c0-.85-.32-1.64-.85-2.27l103.07,9.74c.11.01.22.02.33.02.3,0,.61-.04.9-.12l14.88-3.96,157.52-.34,157.52.34,14.88,3.96c.29.08.6.12.9.12.11,0,.22,0,.33-.02l103.07-9.74c-.54.63-.85,1.42-.85,2.27v5.28l-102.25,9.66Z"/>
    <path d="M1353.86,780.21c0,3.41-3.89,6.29-8.5,6.29h-94.03c-4.61,0-8.5-2.88-8.5-6.29v-6.05l11.39-1.08c2.91,1.35,4.15,1.99,4.67,2.27,1.09,1.07,3.48,2.01,11.31,3.15,6.26.92,14.05,1.62,21.93,1.99,12.47.58,36.09.78,54.22-4.39,2.66-.76,5.17-1.67,7.5-2.72v6.82Z"/>
    <path class="o" d="M1355.23,763.83c-1.97,1.51-4.3,2.74-6.92,3.65-18.05,6.32-47.56,2.46-52.02.67-1.2-1.03-4.44-2.89-15.11-8.71-4.39-2.39-9.62-5.22-15.47-8.37,0,0-.01,0-.02,0-47.22-25.37-134.22-71.04-135.2-71.55-.5-.26-1.06-.4-1.63-.4h-38.78s-.02,0-.03,0-.02,0-.03,0h-260.07s-.02,0-.03,0-.02,0-.03,0h-38.78c-.57,0-1.12.14-1.63.4-1.1.58-110.87,58.19-150.69,79.92-10.73,5.84-13.95,7.69-15.12,8.71-4.5,1.8-33.97,5.64-52.01-.67-2.62-.91-4.94-2.14-6.92-3.66-7.1-5.42-8.41-13.45-8.55-17.8h.98s0,0,.01,0c0,0,0,0,0,0h4.05c8.22,7.28,28,7.79,30.33,7.83.53,0,1.03-.1,1.51-.32l179.73-82.06h374.36l179.73,82.06c.47.22.98.32,1.51.32,2.34-.04,22.11-.55,30.33-7.83h4.05s0,0,0,0c0,0,0,0,.01,0h.98c-.15,4.35-1.46,12.38-8.56,17.8Z"/>
    <path d="M1364.62,605.26c.03,1.12.07,2.24.1,3.36l-2.61,2.34c-.45.41-.95.37-1.21.31-.25-.06-.71-.24-.94-.81-.21-.54-.06-1.15.37-1.52l4.29-3.68Z"/>
    <path class="q" d="M1357.3,739.03c-1.02,0-1.98.44-2.65,1.21-3.83,4.44-17.37,6.37-25.57,6.6l-152.33-69.55,108.56-11.43c6.82,7.84,41.07,48.3,44,72.3.21,1.76,1.71,3.08,3.47,3.08h7.83c.6,0,1.19-.15,1.71-.45l19.8-11.1-2.13,9.34h-2.7Z"/>
    <path d="M1341.05,497.14c-.09-.12-.17-.24-.25-.38.07.13.16.26.25.38Z"/>
    <path class="p" d="M1320.55,496.67c9.06.41,19.33,1.07,21.72,1.51.59.32,1.28.47,1.96.4,2.16-.2,3-1.32,3.94-5.11,6.08,9,13.71,34.67,16.24,105.38l-7.33,6.29c-2.06,1.77-2.77,4.65-1.76,7.17.77,1.92,2.43,3.35,4.44,3.82.48.11.96.17,1.44.17,1.32,0,2.59-.43,3.68-1.2,1.09,48.85-.61,95.62-1.01,105.59l-24.17,13.55h-3.95c-5.86-28.84-44.69-72.48-46.4-74.38-.75-.84-1.85-1.26-2.97-1.15l-122.16,12.86-14.84-6.77c-.46-.21-.95-.32-1.45-.32h-375.88c-.5,0-1,.11-1.45.32l-14.84,6.77-122.16-12.86c-1.12-.12-2.22.31-2.97,1.15-1.71,1.91-40.54,45.54-46.4,74.38h-3.95l-24.17-13.55c-.4-9.97-2.09-56.74-1.01-105.59,1.08.77,2.36,1.2,3.68,1.2.48,0,.97-.05,1.44-.17,2.02-.47,3.68-1.9,4.45-3.82,1.01-2.52.3-5.41-1.76-7.17h0s-7.33-6.29-7.33-6.29c2.53-70.71,10.16-96.38,16.24-105.38.94,3.8,1.79,4.92,3.94,5.11.69.06,1.36-.09,1.96-.4,2.39-.45,12.66-1.11,21.72-1.51.68-.03,1.33-.26,1.88-.65l19.06-13.62c.39-.28.72-.63.96-1.04l9.97-16.57.91.77,60.66,69.24c.56.64,1.33,1.05,2.16,1.16l168.1,22.72c.16.02.31.03.47.03,1.07,0,2.09-.49,2.76-1.35,13.6-17.5,35.49-45.38,40.08-50.54,6.17-.11,34.44-.03,53.5.06,0,0,0,0,0,0,0,0,0,0,0,0h.02c19.06-.09,47.33-.17,53.5-.06,4.59,5.16,26.48,33.04,40.08,50.54.67.86,1.69,1.35,2.76,1.35.16,0,.31-.01.47-.03l168.1-22.72c.84-.11,1.61-.53,2.16-1.16l60.66-69.25.91-.76,9.97,16.57c.25.41.58.77.96,1.04l19.06,13.62c.55.39,1.2.62,1.88.65Z"/>
    <path class="q" d="M1304.26,477.13l-4.89-8.13c1.84-1.99,4.75-5.46,9.6-11.62.92-1.16,1-2.78.21-4.04-1.11-1.75-2.37-3.81-3.12-5.12,1.33-2.42,4.3-7.6,7.03-12.3,3.78,3.74,9.64,11.38,7.78,21.61l-2.79,12.85-7.16,11.5-6.66-4.76Z"/>
    <path class="q" d="M1367.7,472.31h-41.27l-1.26-1.51,1.96-9.02c24.88.71,42.17-.53,51.6-3.74-1.53,4.4-4.65,9.92-11.02,14.27Z"/>
    <g>
      <path d="M885.22,690.55h7.63c5.5,0,9.26,3.31,9.26,8.4s-3.77,8.4-9.26,8.4h-7.63v-16.8ZM892.66,704.16c3.34,0,5.52-1.99,5.52-5.21s-2.18-5.21-5.52-5.21h-3.55v10.42h3.55Z"/>
      <path d="M917.35,701.95h-9.77c.36,1.61,1.73,2.59,3.7,2.59,1.37,0,2.35-.41,3.24-1.25.8.86,1.2,1.3,1.99,2.16-1.2,1.37-3,2.09-5.33,2.09-4.46,0-7.37-2.81-7.37-6.65s2.95-6.65,6.89-6.65,6.72,2.54,6.72,6.7c0,.29-.05.7-.07,1.01ZM907.54,699.77h6.36c-.26-1.63-1.49-2.69-3.17-2.69s-2.93,1.03-3.19,2.69Z"/>
      <path d="M933.12,699.96v7.39h-3.75v-6.82c0-2.09-.96-3.05-2.62-3.05-1.8,0-3.1,1.1-3.1,3.48v6.38h-3.74v-12.91h3.58v1.51c1.01-1.1,2.52-1.7,4.27-1.7,3.05,0,5.35,1.78,5.35,5.71Z"/>
      <path d="M949.08,694.44c-2.33,5.48-3.5,8.22-5.83,13.71-1.25,3.12-3.02,4.06-5.35,4.06-1.32,0-2.76-.43-3.6-1.18.55-1.07.82-1.6,1.37-2.66.58.5,1.37.82,2.11.82,1.03,0,1.61-.46,2.11-1.61.02-.05.03-.07.05-.12-2.24-5.2-3.36-7.81-5.59-13.01h3.86c1.45,3.5,2.17,5.26,3.62,8.76,1.46-3.5,2.19-5.26,3.65-8.76h3.6Z"/>
      <path d="M949.18,706.15c.5-1.08.75-1.61,1.25-2.69,1.15.74,2.9,1.25,4.49,1.25,1.73,0,2.38-.46,2.38-1.18,0-2.11-7.8.05-7.8-5.11,0-2.45,2.21-4.18,5.98-4.18,1.78,0,3.74.41,4.97,1.13-.5,1.07-.75,1.6-1.25,2.66-1.27-.72-2.54-.96-3.72-.96-1.68,0-2.4.53-2.4,1.2,0,2.21,7.8.07,7.8,5.16,0,2.4-2.23,4.1-6.1,4.1-2.18,0-4.39-.6-5.59-1.39Z"/>
      <path d="M976.34,700.75c-.9.94-1.35,1.41-2.26,2.35v4.25h-3.86v-16.8h3.86v7.85c2.98-3.14,4.46-4.71,7.44-7.85h4.32c-2.78,3-4.18,4.49-6.96,7.49,2.95,3.72,4.42,5.59,7.37,9.31h-4.54c-2.15-2.64-3.23-3.96-5.38-6.6Z"/>
      <path d="M986.23,700.9c0-3.89,3-6.65,7.1-6.65s7.08,2.76,7.08,6.65-2.98,6.65-7.08,6.65-7.1-2.76-7.1-6.65ZM996.62,700.9c0-2.23-1.42-3.58-3.29-3.58s-3.31,1.34-3.31,3.58,1.44,3.58,3.31,3.58,3.29-1.34,3.29-3.58Z"/>
      <path d="M1015.37,694.44c-2.18,5.17-3.27,7.75-5.45,12.91h-3.86c-2.17-5.17-3.25-7.75-5.42-12.91h3.86c1.43,3.51,2.15,5.27,3.58,8.79,1.48-3.51,2.22-5.27,3.7-8.79h3.6Z"/>
      <path d="M1027.9,699.98v7.37h-3.5v-1.61c-.7,1.18-2.04,1.8-3.94,1.8-3.02,0-4.83-1.68-4.83-3.91s1.61-3.86,5.54-3.86h2.98c0-1.61-.96-2.54-2.98-2.54-1.37,0-2.78.46-3.72,1.2-.54-1.05-.81-1.57-1.34-2.62,1.42-1.01,3.5-1.56,5.57-1.56,3.94,0,6.22,1.82,6.22,5.74ZM1024.15,703.27v-1.32h-2.57c-1.75,0-2.3.65-2.3,1.51,0,.94.79,1.56,2.11,1.56,1.25,0,2.33-.58,2.76-1.75Z"/>
      <path d="M1031.28,689.54h3.74v17.81h-3.74v-17.81Z"/>
    </g>
  </g>
  <g id="f" data-name="Outline">
    <path class="m" d="M960,682.62h-168.87s-110.38,57.93-150.64,79.9c-8.83,4.81-14.29,7.9-14.47,8.27-1.02,2.04-35.06,7.15-55.49,0-3.15-1.1-5.75-2.54-7.89-4.18-11.76-8.98-9.81-24.08-9.81-24.08h9.87c6.47,7.49,28.94,7.83,28.94,7.83l180.42-82.38h187.94"/>
    <polyline class="m" points="633.25 766.5 786.7 781 802.02 776.91 960 776.57"/>
    <polyline class="m" points="655.97 754.15 786.7 766.5 802.02 762.42 960 762.08"/>
    <polyline class="m" points="807.99 760.33 807.99 739.81 823.81 730.62 960 730.62"/>
    <polyline class="m" points="829.94 682.62 829.94 717.34 960 717.34"/>
    <line class="l" x1="792.39" y1="713.6" x2="792.39" y2="750.36"/>
    <path d="M740.38,736.21l37.35,15.99-3.03,1.89-.02-14.81,1.19,1.9-35.53-19.7s-.06-.08-.03-.12c.02-.04.07-.05.11-.04l37.32,16.05c.74.32,1.19,1.04,1.19,1.8v.1s-.02,14.81-.02,14.81v.11c0,1.13-.91,2.04-2.04,2.03-.36,0-.7-.1-.99-.26l-35.5-19.76Z"/>
    <path class="m" d="M756.35,675.15l-123.11-12.96s-42.63,47.61-46.04,75.55h-7.83l-26.67-14.95s-2.8-62.7-.64-123.65c1.87-52.85,7.48-104.38,21.86-112.6,0,0,1.87,9.36,2.21,8.51s23.15-1.87,23.15-1.87l19.06-13.62,12.09-20.09,4.26,3.57s76.43-114.04,101.62-121.87c25.19-7.83,76.26-16.68,164.09-15.66l26.21-16.68h33.38"/>
    <path class="h" d="M561.29,607.04l-9.22-7.9-.3,9.7,4.45,3.99c1.99,1.78,5.14,1.04,6.14-1.44h0c.61-1.53.18-3.28-1.07-4.35Z"/>
    <polygon class="g" points="747.55 597.17 712.83 621.68 637.6 601.26 613.77 542.36 646.31 555.69 660.79 561.62 696.58 576.29 701.91 578.47 711.54 582.41 716.88 584.6 747.55 597.17"/>
    <path class="i" d="M666.42,567.88c0,6.54-5.3,11.83-11.83,11.83s-11.83-5.29-11.83-11.83c0-5.17,3.32-9.57,7.95-11.18l14.48,5.93c.79,1.58,1.23,3.36,1.23,5.25Z"/>
    <path class="i" d="M654.6,574.71c-3.77,0-6.83-3.06-6.83-6.83s3.06-6.83,6.83-6.83,6.83,3.06,6.83,6.83-3.06,6.83-6.83,6.83Z"/>
    <path class="i" d="M714.2,583.19c-.04,6.5-5.32,11.76-11.83,11.76s-11.83-5.3-11.83-11.83c0-3.21,1.27-6.11,3.36-8.24l5.33,2.18,9.63,3.94,5.34,2.19Z"/>
    <path class="i" d="M709.2,583.12c0,3.77-3.06,6.83-6.83,6.83s-6.83-3.06-6.83-6.83c0-2.64,1.5-4.93,3.69-6.06l9.63,3.94c.22.66.34,1.38.34,2.12Z"/>
    <path class="h" d="M726.32,588.47c-1.07,1.21-13.58,20.61-13.58,20.61l6.17,8.3"/>
    <polyline class="h" points="676.86 568.21 680.66 588.47 706.7 620.02"/>
    <polyline class="h" points="671.01 610.33 662.02 594.66 678.48 576.83"/>
    <polyline class="h" points="629.34 548.74 632.83 571.04 646.74 592.36 646.74 603.74"/>
    <path d="M567.94,637.43c3.47,2.34,6.97,4.58,10.59,6.57,3.6,2.02,7.31,3.8,11.08,5.39,3.79,1.55,7.62,2.97,11.55,4.07,3.91,1.14,7.89,2.07,11.91,2.7,1.36.21,2.28,1.49,2.07,2.84-.11.72-.52,1.32-1.09,1.69h-.02c-3.34,2.2-6.48,4.66-9.45,7.33-3,2.63-5.73,5.56-8.33,8.61-1.31,1.52-2.5,3.13-3.7,4.75-1.2,1.62-2.32,3.29-3.38,5.01-2.17,3.41-4.06,7.02-5.85,10.72-.14.29-.49.42-.78.28-.25-.12-.38-.4-.32-.66.97-4.06,2.44-8.01,4.22-11.82,1.81-3.8,3.97-7.45,6.47-10.87,2.46-3.46,5.32-6.61,8.37-9.57,3.09-2.92,6.44-5.56,9.98-7.92l.96,4.55c-4.22-.77-8.4-1.78-12.47-3.13-4.06-1.39-8.04-2.98-11.83-4.97-3.81-1.94-7.44-4.2-10.88-6.7-3.41-2.54-6.65-5.28-9.55-8.35-.13-.13-.12-.35.01-.47.12-.11.29-.12.42-.03Z"/>
    <path d="M568,622.76c6.66,3.18,13.54,5.96,20.46,8.55l5.2,1.93,5.25,1.79c3.47,1.26,7.02,2.32,10.54,3.44,14.11,4.42,28.45,8.06,42.89,11.28,7.26,1.44,14.49,3.01,21.8,4.18l5.47.95c1.83.31,3.64.66,5.48.88l11,1.57c1.84.25,3.67.55,5.51.77l5.52.62c3.68.43,7.37.81,11.06,1.28,7.38.79,14.79,1.25,22.19,2.03-3.72-.01-7.43-.04-11.15-.11l-5.58-.09c-1.86-.03-3.72-.03-5.58-.16-3.72-.18-7.43-.44-11.15-.66l-5.58-.35c-1.86-.15-3.71-.37-5.56-.56l-11.12-1.16c-1.86-.18-3.7-.48-5.54-.74l-5.53-.81c-7.4-.95-14.71-2.48-22.04-3.84-14.61-3.05-29.07-6.85-43.21-11.66-3.52-1.25-7.06-2.43-10.53-3.82l-5.21-2.05-5.15-2.2c-6.84-3.01-13.58-6.21-19.99-10.13-.26-.16-.34-.49-.18-.75.15-.24.45-.33.7-.21h.03Z"/>
    <path class="m" d="M960,503.38s-53.72-.26-55,0-41.36,51.83-41.36,51.83l-168.1-22.72-60.83-69.45s187.79,22.98,325.3,13.79"/>
    <path class="m" d="M625.07,468.4c-1.09-.25-11.3-13.19-11.3-13.19,0,0,4.08-6.47,4.08-6.98s-10.04-17.7-10.04-17.7l-56.55,1.87s-12.21,4.33-14.93,17.06"/>
    <path class="m" d="M608.07,486.9l-9.46-15.18-3.4,4.09h-43.96c-15.19-9.7-14.93-25.36-14.93-25.36,0,0-.51,9.79,59.36,7.74-3.11-16.94,12.13-27.66,12.13-27.66"/>
    <line class="m" x1="595.68" y1="458.19" x2="598.62" y2="471.72"/>
    <path class="m" d="M713.5,359.54c1.31-1.37,167.5-9.52,222.99-5.77l6.81,24.85h16.7"/>
    <line class="m" x1="900.4" y1="325.51" x2="960" y2="325.51"/>
    <path class="k" d="M896.46,513.5c-7.03,2.65-160.73-4.37-160.73-4.37,0,0,14.02,30.69,15.37,30.87"/>
    <path class="k" d="M735.72,509.13s56.31-13.15,80.37-14.17,143.91,0,143.91,0"/>
    <path class="h" d="M960,632.57h-17.21s-1.83,20.43,17.21,24"/>
    <path class="m" d="M960,667.98h187.94s180.42,82.38,180.42,82.38c0,0,22.47-.34,28.94-7.83h9.87s1.95,15.1-9.81,24.08c-2.14,1.64-4.74,3.08-7.89,4.18-20.43,7.15-54.47,2.04-55.49,0-.18-.37-5.64-3.46-14.47-8.27-40.26-21.97-150.64-79.9-150.64-79.9h-168.87"/>
    <polyline class="m" points="1286.75 766.5 1133.3 781 1117.98 776.91 960 776.57"/>
    <polyline class="m" points="1264.03 754.15 1133.3 766.5 1117.98 762.42 960 762.08"/>
    <polyline class="m" points="1112.01 760.33 1112.01 739.81 1096.19 730.62 960 730.62"/>
    <polyline class="m" points="1090.06 682.62 1090.06 717.34 960 717.34"/>
    <line class="l" x1="1127.61" y1="713.6" x2="1127.61" y2="750.36"/>
    <path d="M1179.62,736.21l-35.5,19.76c-.98.55-2.22.19-2.77-.79-.17-.31-.26-.65-.26-.98v-.12s-.02-14.81-.02-14.81v-.1c0-.81.49-1.5,1.19-1.8l37.32-16.05s.09,0,.11.05c.02.04,0,.09-.04.11l-35.53,19.7,1.19-1.9-.02,14.81-3.03-1.89,37.35-15.99Z"/>
    <path class="m" d="M1163.65,675.15l123.11-12.96s42.63,47.61,46.04,75.55h7.83s26.67-14.95,26.67-14.95c0,0,2.8-62.7.64-123.65-1.87-52.85-7.48-104.38-21.86-112.6,0,0-1.87,9.36-2.21,8.51s-23.15-1.87-23.15-1.87l-19.06-13.62-12.09-20.09-4.26,3.57s-76.43-114.04-101.62-121.87-76.26-16.68-164.09-15.66l-26.21-16.68h-33.38"/>
    <path class="h" d="M1358.71,607.04l9.22-7.9.3,9.7-4.45,3.99c-1.99,1.78-5.14,1.04-6.14-1.44h0c-.61-1.53-.18-3.28,1.07-4.35Z"/>
    <polygon class="g" points="1172.45 597.17 1207.17 621.68 1282.4 601.26 1306.23 542.36 1273.69 555.69 1259.21 561.62 1223.42 576.29 1218.09 578.47 1208.46 582.41 1203.12 584.6 1172.45 597.17"/>
    <path class="i" d="M1253.58,567.88c0,6.54,5.3,11.83,11.83,11.83,6.53,0,11.83-5.29,11.83-11.83,0-5.17-3.32-9.57-7.95-11.18l-14.48,5.93c-.79,1.58-1.23,3.36-1.23,5.25Z"/>
    <path class="i" d="M1265.4,574.71c3.77,0,6.83-3.06,6.83-6.83,0-3.77-3.06-6.83-6.83-6.83s-6.83,3.06-6.83,6.83c0,3.77,3.06,6.83,6.83,6.83Z"/>
    <path class="i" d="M1205.8,583.19c.04,6.5,5.32,11.76,11.83,11.76,6.53,0,11.83-5.3,11.83-11.83,0-3.21-1.27-6.11-3.36-8.24l-5.33,2.18-9.63,3.94-5.34,2.19Z"/>
    <path class="i" d="M1210.8,583.12c0,3.77,3.06,6.83,6.83,6.83s6.83-3.06,6.83-6.83c0-2.64-1.5-4.93-3.69-6.06l-9.63,3.94c-.22.66-.34,1.38-.34,2.12Z"/>
    <path class="h" d="M1193.68,588.47c1.07,1.21,13.58,20.61,13.58,20.61l-6.17,8.3"/>
    <polyline class="h" points="1243.14 568.21 1239.34 588.47 1213.3 620.02"/>
    <polyline class="h" points="1248.99 610.33 1257.98 594.66 1241.52 576.83"/>
    <polyline class="h" points="1290.66 548.74 1287.17 571.04 1273.26 592.36 1273.26 603.74"/>
    <path d="M1352.49,637.94c-2.9,3.07-6.14,5.82-9.55,8.35-3.44,2.5-7.07,4.76-10.88,6.7-3.79,1.99-7.77,3.58-11.83,4.97-4.07,1.35-8.25,2.36-12.47,3.13l.96-4.55c3.53,2.37,6.89,5.01,9.98,7.92,3.05,2.96,5.92,6.11,8.37,9.57,2.5,3.42,4.66,7.07,6.47,10.87,1.78,3.82,3.25,7.76,4.22,11.82.08.31-.12.63-.43.71-.27.07-.55-.07-.66-.32-1.78-3.7-3.67-7.31-5.85-10.72-1.06-1.72-2.18-3.4-3.38-5.01-1.2-1.62-2.39-3.23-3.7-4.75-2.6-3.05-5.33-5.98-8.33-8.61-2.96-2.67-6.11-5.13-9.45-7.31h-.01c-1.15-.76-1.47-2.3-.72-3.45.4-.61,1.03-.99,1.7-1.1,4.02-.63,7.99-1.56,11.91-2.7,3.93-1.09,7.76-2.52,11.55-4.07,3.77-1.59,7.48-3.38,11.08-5.39,3.62-1.98,7.12-4.22,10.59-6.57.15-.1.36-.06.47.09.09.13.07.31-.03.42Z"/>
    <path d="M1352.55,623.7c-6.4,3.92-13.15,7.12-19.98,10.13l-5.15,2.2-5.21,2.05c-3.47,1.39-7.01,2.57-10.53,3.82-14.14,4.81-28.61,8.61-43.21,11.66-7.34,1.36-14.64,2.89-22.04,3.84l-5.53.81c-1.85.26-3.68.57-5.54.74l-11.12,1.16c-1.85.18-3.7.4-5.56.56l-5.58.35c-3.72.22-7.43.48-11.15.66-1.86.13-3.72.13-5.58.16l-5.58.09c-3.72.07-7.44.1-11.15.11,7.41-.78,14.82-1.24,22.19-2.03,3.68-.46,7.37-.85,11.06-1.28l5.52-.62c1.84-.23,3.67-.52,5.51-.77l11-1.57c1.84-.22,3.66-.57,5.48-.88l5.47-.95c7.31-1.17,14.55-2.74,21.8-4.18,14.44-3.22,28.78-6.86,42.89-11.28,3.52-1.12,7.07-2.18,10.54-3.44l5.25-1.79,5.2-1.93c6.92-2.58,13.81-5.37,20.46-8.55h.02c.27-.14.6-.03.73.24.12.25.03.55-.21.7Z"/>
    <path class="m" d="M960,503.38s53.72-.26,55,0,41.36,51.83,41.36,51.83l168.1-22.72,60.83-69.45s-187.79,22.98-325.3,13.79"/>
    <path class="m" d="M1294.93,468.4c1.09-.25,11.3-13.19,11.3-13.19,0,0-4.08-6.47-4.08-6.98,0-.51,10.04-17.7,10.04-17.7l56.55,1.87s12.21,4.33,14.93,17.06"/>
    <path class="m" d="M1311.93,486.9l9.46-15.18,3.4,4.09h43.96c15.19-9.7,14.93-25.36,14.93-25.36,0,0,.51,9.79-59.36,7.74,3.11-16.94-12.13-27.66-12.13-27.66"/>
    <line class="m" x1="1324.32" y1="458.19" x2="1321.38" y2="471.72"/>
    <path class="m" d="M1206.5,359.54c-1.31-1.37-167.5-9.52-222.99-5.77l-6.81,24.85h-16.7"/>
    <line class="m" x1="1019.6" y1="325.51" x2="960" y2="325.51"/>
    <path class="k" d="M1023.54,513.5c7.03,2.65,160.73-4.37,160.73-4.37,0,0-14.02,30.69-15.37,30.87"/>
    <path class="k" d="M1184.28,509.13s-56.31-13.15-80.37-14.17c-24.06-1.02-143.91,0-143.91,0"/>
    <path class="h" d="M960,632.57h17.21s1.83,20.43-17.21,24"/>
    <polyline class="j" points="696.81 378.62 687.47 374.19 687.47 332.83 695.38 327.21 695.38 350.19 692.14 354.79 692.14 369.34 700.89 373.73"/>
    <path class="j" d="M695.38,346.87s31.19-8,59-10.38"/>
    <line class="j" x1="692.14" y1="360.15" x2="711.72" y2="358.87"/>
    <path class="j" d="M692.14,354.79s12.26-2.6,29.33-3.22"/>
    <path class="m" d="M680.66,762.52v17.69c0,5.4-5.37,9.79-12,9.79h-94.03c-6.63,0-12-4.38-12-9.79v-12.64c3.24,2.03,7.19,3.81,11.96,5.17,30.97,8.84,82.58,2.52,84.12,0,.27-.46,8.55-4.28,21.94-10.23Z"/>
    <line class="m" x1="552.71" y1="722.79" x2="557.2" y2="742.53"/>
    <path class="m" d="M772.03,333.16s39.01-8.75,55.1-19.22l99.49-5.11"/>
    <polyline class="j" points="1223.19 378.62 1232.53 374.19 1232.53 332.83 1224.62 327.21 1224.62 350.19 1227.86 354.79 1227.86 369.34 1219.11 373.73"/>
    <path class="j" d="M1224.62,346.87s-31.19-8-59-10.38"/>
    <line class="j" x1="1227.86" y1="360.15" x2="1208.28" y2="358.87"/>
    <path class="j" d="M1227.86,354.79s-12.26-2.6-29.33-3.22"/>
    <path class="m" d="M1239.34,762.52v17.69c0,5.4,5.37,9.79,12,9.79h94.03c6.63,0,12-4.38,12-9.79v-12.64c-3.24,2.03-7.19,3.81-11.96,5.17-30.97,8.84-82.58,2.52-84.12,0-.27-.46-8.55-4.28-21.94-10.23Z"/>
    <line class="m" x1="1367.29" y1="722.79" x2="1362.8" y2="742.53"/>
    <path class="m" d="M1147.97,333.16s-39.01-8.75-55.1-19.22l-99.49-5.11"/>
  </g>
</svg>