<?xml version="1.0" encoding="UTF-8"?>
<svg id="a" data-name="Layer 1" xmlns="http://www.w3.org/2000/svg" viewBox="0 0 300 300">
  <path d="M205.73,205.94c.69-1.94,1.34-3.9,1.95-5.88,4.68-15.22,7-31.92,7-50.22,0-19.78-2.75-37.75-8.32-53.94-.65-2.01-1.38-4.02-2.14-5.99l50.26-65.92h-37.6l-28.77,37.83c-6.79-8.5-15.05-15.72-24.7-21.66-8.17-5.03-17.35-8.9-27.64-11.6-9.91-2.61-20.78-4.09-32.67-4.46-2.01-.06-3.98-.11-6.04-.11h-59.4v252h59.4c2.01,0,4.03-.05,6.04-.11,11.88-.37,22.76-1.85,32.67-4.46,10.29-2.7,19.52-6.57,27.73-11.66,10.57-6.6,19.52-14.74,26.72-24.4l32.75,40.63h39.35l-56.6-70.06ZM96.4,246.22c-.66.02-1.31.02-1.98.02h-24.29V53.8h24.29c.67,0,1.33,0,1.98.02v192.39ZM129.06,59.32c2.31.85,4.55,1.8,6.71,2.86,2.61,1.17,5.09,2.59,7.48,4.14,9.62,6.29,17.33,14.34,23.1,24.17l-3.92,5.15-33.36,43.87V59.32ZM143.09,233.84c-2.33,1.55-4.71,2.92-7.32,4.09-2.14,1.06-4.38,2.01-6.71,2.85v-81.23l34.2,42.43,4.19,5.19c-5.86,10.99-14.01,19.88-24.36,26.68ZM179.47,165.22c-.24,2.44-.55,4.82-.9,7.17l-5.81-7.17-13.37-16.55,13.1-17.18,5.62-7.38c.43,2.41.79,4.87,1.08,7.38.74,5.99,1.12,12.2,1.12,18.71-.05,5.15-.32,10.19-.85,15.01Z" style="fill: #272626;"/>
</svg>