<?xml version="1.0" encoding="UTF-8"?>
<svg xmlns="http://www.w3.org/2000/svg" xmlns:xlink="http://www.w3.org/1999/xlink" viewBox="0 0 1000 1000">
  <defs>
    <style>
      .aa {
        fill: url(#k);
      }

      .ab {
        font-family: Montserrat-Bold, Montserrat;
        font-size: 36px;
        font-weight: 700;
      }

      .ab, .ac {
        fill: #282828;
      }

      .ad {
        fill: url(#w);
      }

      .ae {
        letter-spacing: -.02em;
      }

      .af {
        fill: url(#t);
      }

      .ag {
        fill: url(#c);
      }

      .ah {
        fill: url(#d);
      }

      .ai {
        fill: url(#l);
      }

      .aj {
        fill: url(#h);
      }

      .ak {
        fill: url(#o);
      }

      .al {
        fill: url(#j);
      }

      .am {
        fill: url(#g);
      }

      .an {
        fill: url(#q);
      }

      .ao {
        fill: url(#m);
      }

      .ap {
        fill: #fff;
      }

      .ap, .aq, .ar {
        stroke-linecap: round;
        stroke-linejoin: round;
      }

      .ap, .aq, .ar, .as {
        stroke: #000;
      }

      .ap, .aq, .as {
        stroke-width: 2px;
      }

      .aq, .ar {
        fill: none;
      }

      .at {
        fill: url(#e);
      }

      .au {
        fill: url(#i);
      }

      .av {
        fill: #5b5a5e;
      }

      .aw {
        fill: url(#f);
      }

      .ax {
        fill: url(#v);
      }

      .ar {
        stroke-width: 3px;
      }

      .ay {
        fill: #333;
      }

      .az {
        fill: url(#x);
      }

      .ba {
        fill: url(#p);
      }

      .bb {
        fill: url(#y);
      }

      .bc {
        letter-spacing: 0em;
      }

      .as {
        fill: #db902e;
        stroke-miterlimit: 10;
      }

      .bd {
        fill: url(#b);
      }

      .be {
        letter-spacing: 0em;
      }

      .bf {
        fill: url(#r);
      }

      .bg {
        fill: #ccc;
      }

      .bh {
        fill: #b3b3b3;
      }

      .bi {
        letter-spacing: -.02em;
      }

      .bj {
        fill: url(#n);
      }

      .bk {
        letter-spacing: -.02em;
      }

      .bl {
        fill: url(#u);
      }

      .bm {
        letter-spacing: 0em;
      }

      .bn {
        fill: url(#s);
      }

      .bo {
        fill: #e6e6e6;
      }
    </style>
    <linearGradient id="b" data-name="Безымянный градиент 14" x1="119.28" y1="437.55" x2="266.81" y2="437.55" gradientUnits="userSpaceOnUse">
      <stop offset="0" stop-color="gray"/>
      <stop offset="1" stop-color="#e6e6e6"/>
    </linearGradient>
    <linearGradient id="c" data-name="Безымянный градиент 18" x1="733.19" y1="437.55" x2="880.72" y2="437.55" gradientUnits="userSpaceOnUse">
      <stop offset="0" stop-color="#e6e6e6"/>
      <stop offset="1" stop-color="gray"/>
    </linearGradient>
    <radialGradient id="d" data-name="Безымянный градиент 50" cx="164.62" cy="667.47" fx="164.62" fy="667.47" r="15.86" gradientUnits="userSpaceOnUse">
      <stop offset=".57" stop-color="#ff4040"/>
      <stop offset="1" stop-color="#bdccd4"/>
    </radialGradient>
    <linearGradient id="e" data-name="Безымянный градиент 4" x1="215.78" y1="717.23" x2="313.99" y2="717.23" gradientUnits="userSpaceOnUse">
      <stop offset="0" stop-color="#000"/>
      <stop offset="1" stop-color="#fff"/>
    </linearGradient>
    <linearGradient id="f" data-name="Безымянный градиент 13" x1="112.6" y1="535.75" x2="289.55" y2="535.75" gradientUnits="userSpaceOnUse">
      <stop offset="0" stop-color="gray"/>
      <stop offset="1" stop-color="#e6e6e6"/>
    </linearGradient>
    <radialGradient id="g" data-name="Безымянный градиент 50" cx="224.47" cy="455.53" fx="224.47" fy="455.53" r="5" xlink:href="#d"/>
    <radialGradient id="h" data-name="Безымянный градиент 50" cx="165.85" cy="434.28" fx="165.85" fy="434.28" r="14.83" xlink:href="#d"/>
    <radialGradient id="i" cx="224.47" cy="471.62" fx="224.47" fy="471.62" r="2.96" gradientUnits="userSpaceOnUse">
      <stop offset=".57" stop-color="#fff"/>
      <stop offset="1" stop-color="#bdccd4"/>
    </radialGradient>
    <radialGradient id="j" data-name="Безымянный градиент 46" cx="238.4" cy="463.57" fx="238.4" fy="463.57" r="2.96" gradientUnits="userSpaceOnUse">
      <stop offset=".57" stop-color="#9f3ed5"/>
      <stop offset="1" stop-color="#bdccd4"/>
    </radialGradient>
    <radialGradient id="k" data-name="Безымянный градиент 46" cx="238.4" cy="447.49" fx="238.4" fy="447.49" r="2.96" xlink:href="#j"/>
    <radialGradient id="l" cx="224.47" cy="439.45" fx="224.47" fy="439.45" r="2.96" gradientUnits="userSpaceOnUse">
      <stop offset=".57" stop-color="#fff"/>
      <stop offset="1" stop-color="#bdccd4"/>
    </radialGradient>
    <radialGradient id="m" data-name="Безымянный градиент 46" cx="210.54" cy="447.49" fx="210.54" fy="447.49" r="2.96" xlink:href="#j"/>
    <radialGradient id="n" data-name="Безымянный градиент 46" cx="210.54" cy="463.57" fx="210.54" fy="463.57" r="2.96" xlink:href="#j"/>
    <radialGradient id="o" data-name="Безымянный градиент 50" cx="835.38" fx="835.38" xlink:href="#d"/>
    <linearGradient id="p" data-name="Безымянный градиент" x1="686.01" y1="717.23" x2="784.22" y2="717.23" gradientUnits="userSpaceOnUse">
      <stop offset="0" stop-color="#fff"/>
      <stop offset="1" stop-color="#000"/>
    </linearGradient>
    <linearGradient id="q" data-name="Безымянный градиент 18" x1="710.45" y1="535.75" x2="887.4" y2="535.75" xlink:href="#c"/>
    <radialGradient id="r" data-name="Безымянный градиент 50" cx="775.53" cy="455.53" fx="775.53" fy="455.53" r="5" xlink:href="#d"/>
    <radialGradient id="s" data-name="Безымянный градиент 50" cx="834.15" cy="434.28" fx="834.15" fy="434.28" r="14.83" xlink:href="#d"/>
    <radialGradient id="t" cx="775.53" cy="471.62" fx="775.53" fy="471.62" r="2.96" gradientUnits="userSpaceOnUse">
      <stop offset=".57" stop-color="#fff"/>
      <stop offset="1" stop-color="#bdccd4"/>
    </radialGradient>
    <radialGradient id="u" data-name="Безымянный градиент 46" cx="761.6" cy="463.57" fx="761.6" fy="463.57" r="2.96" xlink:href="#j"/>
    <radialGradient id="v" data-name="Безымянный градиент 46" cx="761.6" cy="447.49" fx="761.6" fy="447.49" r="2.96" xlink:href="#j"/>
    <radialGradient id="w" data-name="Безымянный градиент 46" cx="775.53" cy="439.45" fx="775.53" fy="439.45" r="2.96" xlink:href="#j"/>
    <radialGradient id="x" cx="789.46" cy="447.49" fx="789.46" fy="447.49" r="2.96" gradientUnits="userSpaceOnUse">
      <stop offset=".57" stop-color="#fff"/>
      <stop offset="1" stop-color="#bdccd4"/>
    </radialGradient>
    <radialGradient id="y" data-name="Безымянный градиент 46" cx="789.46" cy="463.57" fx="789.46" fy="463.57" r="2.96" xlink:href="#j"/>
  </defs>
  <g id="a" data-name="Outline">
    <path class="bd" d="M260.95,480.33c-2.16,1.21-3.99,1.79-4.01,1.79-.08.02-.16.06-.23.09-18.51,9.38-109.01-3.34-110-3.48-10.12-.89-17.54-4.72-22.07-11.39-9.96-14.67-2.99-38.53-2.92-38.77.01-.04.02-.08.03-.11,3.66-16.97,10.49-28.61,20.29-34.62,5.86-3.59,11.7-4.41,15.81-4.41,3.42,0,5.65.57,5.69.58,61.85,17.34,87.38,46.77,97.72,65.58,0,.01.01.02.02.04,2.27,4.14,3.82,7.77,4.84,10.63,1.93,5.39-.24,11.3-5.16,14.05Z"/>
    <path class="bh" d="M224.47,481.72c-14.44,0-26.19-11.75-26.19-26.19s11.75-26.19,26.19-26.19,26.19,11.75,26.19,26.19-11.75,26.19-26.19,26.19Z"/>
    <path class="ag" d="M733.89,466.27c1.02-2.84,2.54-6.43,4.78-10.53.03-.05.06-.11.09-.16,10.35-18.81,35.88-48.22,97.69-65.56.11-.03,10.7-2.77,21.46,3.79,9.83,6,16.67,17.65,20.34,34.65,0,.04.02.08.03.11.07.24,7.04,24.1-2.92,38.77-4.53,6.67-11.96,10.5-22.15,11.4-.91.13-91.41,12.85-109.92,3.47-.07-.04-.15-.07-.23-.09-.02,0-1.85-.58-4.01-1.79h0c-4.92-2.76-7.09-8.67-5.16-14.05Z"/>
    <path class="bh" d="M775.53,429.34c14.44,0,26.19,11.75,26.19,26.19s-11.75,26.19-26.19,26.19-26.19-11.75-26.19-26.19,11.75-26.19,26.19-26.19Z"/>
    <path class="bh" d="M834.15,403.62c16.91,0,30.66,13.75,30.66,30.66s-13.75,30.66-30.66,30.66-30.66-13.75-30.66-30.66,13.75-30.66,30.66-30.66Z"/>
    <path class="bh" d="M165.85,464.94c-16.91,0-30.66-13.75-30.66-30.66s13.75-30.66,30.66-30.66,30.66,13.75,30.66,30.66-13.75,30.66-30.66,30.66Z"/>
    <path class="av" d="M86.38,497.34s.04-.01.06-.02c4.15-2.13,8.22-11.17,9.79-14.98l.03-.08c1.95-1.77,15.38-13.62,25.36-14.04.17.27.33.54.51.81,5.06,7.46,13.24,11.73,24.22,12.69,2.71.38,49.27,6.93,82.41,6.92,12.86,0,23.71-.99,29.18-3.7.49-.16,2.32-.8,4.46-2,6.21-3.47,8.95-10.91,6.52-17.68-1.01-2.81-2.49-6.32-4.64-10.33.78-1.21,3.41-3.89,10.71-1.65,1.72.53,3.56.85,5.63.98,10.44.66,28.45,1.22,35.71-1.98,5.11,5.03,8.37,8.3,9.04,8.97,5.61,8.8,33.24,9.25,38.83,9.25.28,0,.5,0,.67,0,.04,0,.08,0,.12,0,8.26-.75,133.57-1.26,134.99-1.27,1.42,0,126.73.52,134.99,1.27.04,0,.08,0,.12,0,.16,0,.39,0,.67,0,5.59,0,33.21-.45,38.83-9.25.67-.67,3.93-3.94,9.04-8.97,7.25,3.2,25.27,2.64,35.71,1.98,2.07-.13,3.91-.45,5.63-.98,7.29-2.23,9.93.43,10.71,1.65-2.15,4.01-3.63,7.52-4.64,10.33-2.43,6.77.32,14.21,6.52,17.68t0,0c2.14,1.2,3.97,1.84,4.46,2,5.47,2.71,16.31,3.7,29.18,3.7,33.14,0,79.68-6.54,82.33-6.92,11.06-.97,19.24-5.24,24.3-12.7.18-.27.34-.54.51-.81,9.99.42,23.41,12.26,25.36,14.04l.04.1c1.56,3.79,5.63,12.84,9.78,14.96.02.01.04.01.06.02,6.2,40.94,6.93,84.37,5.75,120.59-13.38,2.61-142.87,27.09-292.95,27.09-.76,0-1.53,0-2.3,0v-3.67c0-2.8-2.28-5.08-5.07-5.08h-238.08c-2.8,0-5.07,2.28-5.07,5.08v3.67c-.77,0-1.53,0-2.3,0-150.06,0-279.56-24.48-292.95-27.09-1.18-36.22-.45-79.65,5.75-120.59Z"/>
    <path class="av" d="M874.97,745.08c-2.95.97-6.17,1.87-9.54,2.67l-.47.1c-.65.16-1.3.31-1.97.45-.77.17-1.53.33-2.32.47l-.15.03c-3.05.6-6.27,1.13-9.57,1.56-.68.09-1.36.17-2.03.26l-.67.08c-.75.09-1.49.18-2.25.25-3.08.33-6.3.59-9.58.77-.79.05-1.58.08-2.35.12h-.12c-.81.04-1.61.07-2.48.11-8.33.27-15.11,0-18.8-.21.18-.75.13-1.55-.19-2.28-4.13-9.69-11.47-21.53-18.64-32.07,16.43-.75,99.64-4.95,118.89-13.31-1.25,18.11-12.41,31.35-33.21,39.37-1.45.56-2.98,1.11-4.56,1.62Z"/>
    <path class="av" d="M791.85,714.48c-9.3-13.43-17.78-24.09-17.94-24.29-17.97-22.47-136.41-17.12-149.8-16.45v-25.73c.77,0,1.53,0,2.3,0,148.04,0,276.11-23.78,292.84-27.02-1.53,42.69-5.64,74.72-6.3,79.63-12.1,7.36-83.68,12.24-121.11,13.84Z"/>
    <path class="av" d="M187.33,751.74c-3.69.21-10.49.47-18.88.21-.79-.03-1.58-.06-2.39-.1h-.12c-.78-.04-1.56-.08-2.37-.13-3.27-.18-6.49-.44-9.59-.77-.74-.07-1.48-.16-2.23-.25l-.66-.08c-.68-.08-1.36-.17-2.04-.26-3.3-.44-6.52-.96-9.57-1.56l-.16-.03c-.78-.15-1.54-.31-2.33-.48-.66-.14-1.31-.29-2.01-.46l-.39-.08c-3.4-.8-6.62-1.7-9.58-2.68-1.57-.51-3.11-1.06-4.56-1.62-20.81-8.02-31.96-21.26-33.21-39.37,19.25,8.36,102.46,12.56,118.89,13.31-7.17,10.54-14.5,22.38-18.64,32.07-.31.73-.37,1.53-.19,2.28Z"/>
    <path class="av" d="M208.15,714.48c-37.43-1.61-109.02-6.49-121.11-13.84-.66-4.91-4.76-36.94-6.3-79.63,16.73,3.24,144.79,27.02,292.84,27.02.76,0,1.53,0,2.3,0v25.73c-13.38-.68-131.82-6.02-149.8,16.45-.16.19-8.64,10.86-17.94,24.29Z"/>
    <path class="av" d="M830.79,307.58c-.66-5.32,3.14-7.81,6.43-8.95.89-.31,1.86-.47,2.87-.47,8.48,0,16.62,1.29,24.18,3.82,30.31,10.17,34.86,28.01,35.54,32.96-7.62,1.01-44.41,5.62-67.24,3.7-2.44-12.51-1.78-30.58-1.77-30.82,0-.08,0-.16-.01-.24Z"/>
    <path class="ay" d="M833.26,341.7c3.67.28,7.65.4,11.82.4,21.62,0,47.57-3.2,54.67-4.13-2,10.95-21.55,15.81-27.76,17.07-.67.14-1.37.19-2.11.26-.28.02-.56.05-.84.07-5.11.5-9.83,9.42-11.65,13.33-3.41-2.25-12.1-7.38-21.87-8.65l.9-10.67c.03-.37-.08-.75-.31-1.04-1.19-1.54-2.12-3.87-2.85-6.64Z"/>
    <path class="av" d="M831.71,362.76c.69,0,1.36.05,2.06.11,12.1,1.07,23.25,9.21,23.32,9.26,24.83,19.56,42.57,54.53,52.74,103.93-2.49,1.55-3.92,2.62-4.74,3.38-3.37-2.99-15.06-12.82-25.13-14.1,7.49-15.45,1.67-36.02,1.21-37.57-3.85-17.8-11.15-30.09-21.7-36.52-11.85-7.23-23.32-4.26-23.82-4.12-60.68,17.01-87.09,45.69-98.4,65.03-1.88-1.93-5.74-4.01-13.15-1.74-1.5.46-3.11.74-4.94.85-15.69.99-27.72.5-33.17-1.29,28.08-27.54,99.75-96.1,126.56-105.3.23-.08.42-.21.57-.37.39.02.79.03,1.16.05,5.9.26,9.47.4,9.47.4.02,0,.04,0,.06,0,.17,0,.33-.03.49-.09,3.76,10.3,5.9,16.74,6.01,17.06.2.61.76,1.02,1.4,1.03Z"/>
    <path class="av" d="M500.01,466.22s0,0,0,0c0,0,0,0,0,0-5.16.02-126.26.52-135.19,1.28-8.95.08-32.91-1.24-36.94-7.95-.06-.1-.14-.2-.22-.28-4.08-4.11-95.98-96.57-134.09-115.25,20.93-.94,57.89-2.74,79.86-4.59l1.14-.1c.64-.05,1.28-.11,1.88-.16,2.72-.24,5.24-.5,7.52-.77.74-.1,75.26-9.68,173.08-10.45,14.31-.12,28.75-.03,42.94.25,0,0,.02,0,.03,0,0,0,0,0,0,0,0,0,0,0,0,0s0,0,0,0c0,0,0,0,0,0,0,0,.02,0,.03,0,14.18-.28,28.63-.36,42.94-.25,97.81.77,172.34,10.35,173.1,10.45,2.26.27,4.78.52,7.5.76.62.06,1.25.11,1.89.16l1.14.1c21.97,1.85,58.92,3.64,79.85,4.59-38.1,18.69-130.01,111.14-134.09,115.25-.08.09-.16.18-.22.28-4.03,6.71-28,8.03-36.94,7.95-8.94-.76-130.03-1.26-135.19-1.28Z"/>
    <path class="ay" d="M487.47,184.68c.07,4.48.55,16.97,3.63,25.53-8.41,1.52-26.54,3.69-32.71-.58-1.1-.76-1.73-1.67-1.9-2.79,0-.04-.02-.08-.03-.12-.03-.13-3.15-12.74-2.92-21.02,12.42-.48,23.94-.84,33.93-1.02Z"/>
    <path class="ay" d="M500,184.54c2.97,0,6.16.04,9.53.09-.11,7.9-1.38,24.92-6.48,30.01-.94.93-1.93,1.43-3.03,1.37,0,0,0,0,0,0,0,0,0,0,0,0-.02,0-.04,0-.06,0-1.08,0-2.06-.45-2.99-1.37-5.1-5.08-6.38-22.1-6.48-30.01,3.38-.05,6.57-.08,9.54-.09Z"/>
    <path class="ay" d="M546.46,185.7c.23,8.28-2.89,20.89-2.92,21.02-.01.04-.02.08-.03.12-.18,1.11-.8,2.02-1.9,2.79-6.16,4.27-24.3,2.1-32.71.58,3.08-8.57,3.56-21.05,3.63-25.53,9.99.18,21.51.54,33.93,1.02Z"/>
    <path class="bo" d="M453.53,207.39c.33,1.9,1.38,3.49,3.15,4.71,3.32,2.3,9.02,3.04,14.96,3.04,8.51,0,17.49-1.51,20.65-2.1.73,1.48,1.58,2.75,2.55,3.72,1.5,1.49,3.21,2.25,5.1,2.25.02,0,.04,0,.06,0,.02,0,.04,0,.06,0,1.89,0,3.61-.76,5.1-2.25.97-.97,1.82-2.24,2.55-3.72,3.15.58,12.14,2.1,20.65,2.1,5.93,0,11.63-.74,14.96-3.04,1.76-1.22,2.82-2.81,3.15-4.71.27-1.08,3.18-13.09,3-21.57,72.5,2.88,173.78,9.74,187.73,11.14.73.07,1.39.42,1.87.98,6.05,7.14,37.81,47.41,73.11,143.33-19.22-.84-61.28-2.81-85.32-4.83l-.26-.02c-1.08-11.99-5.48-21.35-13.12-27.84-11.45-9.74-26.58-10.13-31.75-9.94.58-7.6,1.68-37.15-14.48-54.36-8.27-8.8-19.77-12.9-34.18-12.17-14.38-.71-25.86,3.38-34.12,12.18-16.18,17.22-15.06,46.8-14.47,54.37-6.34-.17-27.79.62-38.68,17.97-.09-2.71-.73-5.5-2.51-7.74-1.98-2.49-5.04-3.9-9.12-4.21.56-4.4,1.19-16.17-6.16-24.91-5.82-6.92-15.23-10.24-27.99-9.87-12.74-.37-22.16,2.95-27.99,9.87-7.35,8.74-6.72,20.51-6.16,24.92-4.08.31-7.15,1.72-9.12,4.21-1.78,2.24-2.42,5.03-2.51,7.74-10.89-17.35-32.33-18.14-38.68-17.97.58-7.57,1.7-37.15-14.47-54.37-8.26-8.79-19.74-12.89-34.12-12.18-14.42-.73-25.91,3.37-34.19,12.17-16.16,17.21-15.06,46.76-14.48,54.36-5.17-.19-20.3.2-31.75,9.94-7.64,6.5-12.05,15.86-13.12,27.84l-.25.02c-24.04,2.02-66.1,3.98-85.32,4.83,35.3-95.92,67.06-136.19,73.11-143.33.47-.56,1.14-.91,1.87-.98,13.94-1.4,115.22-8.26,187.72-11.14-.18,8.48,2.73,20.49,3,21.57Z"/>
    <path class="ay" d="M321.42,300.06c-.03-.35-3.78-35.33,13.53-53.74,7.66-8.14,18.37-11.92,31.87-11.23.05,0,.11.01.16,0,13.51-.69,24.24,3.09,31.89,11.23,17.31,18.42,13.56,53.39,13.52,53.74-.05.45.1.9.42,1.22s.77.49,1.22.44c.32-.03,31.44-2.84,40.89,23.25-96.98.89-170.63,10.36-171.34,10.45-2.15.25-4.56.5-7.15.73,1.09-10.9,5.13-19.41,12.02-25.28,12.73-10.85,31.14-9.16,31.33-9.14.44.04.89-.12,1.21-.44.32-.33.48-.78.42-1.23Z"/>
    <path class="ay" d="M587.6,300.06c-.04-.35-3.79-35.32,13.52-53.74,7.65-8.14,18.38-11.92,31.89-11.23.08,0,.16,0,.24-.01,13.46-.67,24.15,3.11,31.8,11.23,17.31,18.41,13.56,53.39,13.53,53.74,0,.04,0,.07,0,.11-2.73-1.24-5.42-2.21-7.96-2.98-14.16-4.29-26.59-3.24-27.78-3.13-2.11.02-40.25.81-58.62,31.74-12.5-.41-25.6-.7-39.15-.83,9.39-26.05,39.58-23.38,40.89-23.25.45.05.9-.12,1.22-.44.32-.32.47-.77.42-1.22Z"/>
    <path class="ay" d="M642.9,297.05c.05,0,.11,0,.16,0,.12-.01,12.76-1.23,26.77,3.04,17.88,5.44,29.77,16.9,35.42,34.04-19.39-2.12-62.54-6.29-117.6-8.21,18.24-28.76,54.89-28.87,55.24-28.86Z"/>
    <path class="av" d="M274.31,177.61c1.81-.8,3.75-1.32,5.76-1.53,20.58-2.23,145.15-11.12,219.91-9.92,0,0,.01,0,.02,0,0,0,.02,0,.03,0,74.77-1.19,199.34,7.69,219.92,9.92,2.01.22,3.94.73,5.75,1.53,39.9,17.68,81.33,120.17,97.53,164.12-1.18-.05-3.92-.16-7.8-.33-35.64-97.24-67.94-138.17-74.07-145.41-.98-1.15-2.35-1.87-3.86-2.02-14.05-1.41-116.71-8.36-189.39-11.21-.11-.02-.22-.02-.33-.01-13.31-.52-25.59-.9-36.14-1.09-.18-.08-.38-.12-.6-.12h-.01c-.19,0-.37.04-.53.11-3.73-.06-7.25-.1-10.5-.11h0c-3.25,0-6.76.04-10.5.11-.17-.06-.34-.1-.53-.11h-.01c-.21,0-.41.05-.6.12-10.55.19-22.83.57-36.14,1.09,0,0,0,0,0,0-.12,0-.23,0-.34.01-72.68,2.85-175.33,9.8-189.38,11.21-1.51.15-2.88.87-3.86,2.02-6.13,7.23-38.42,48.16-74.07,145.41-3.89.17-6.63.28-7.81.33,16.2-43.95,57.63-146.44,97.53-164.12Z"/>
    <path class="av" d="M135.73,301.98c7.56-2.54,15.69-3.82,24.18-3.82,1.01,0,1.98.16,2.87.47,3.3,1.15,7.09,3.63,6.43,8.95,0,.08-.01.16-.01.24,0,.24.67,18.31-1.77,30.82-22.8,1.91-59.55-2.69-67.22-3.7.75-4.97,5.53-22.9,35.51-32.96Z"/>
    <path class="ay" d="M130.96,355.38c-.28-.03-.56-.05-.84-.07-.74-.06-1.44-.12-2.11-.26-6.21-1.27-25.79-6.13-27.76-17.07,7.1.93,33.06,4.13,54.68,4.13,4.16,0,8.14-.13,11.82-.4-.73,2.77-1.66,5.1-2.85,6.64-.23.3-.34.67-.31,1.04l.9,10.67c-9.77,1.27-18.43,6.39-21.87,8.65-1.83-3.9-6.54-12.83-11.65-13.33Z"/>
    <path class="av" d="M142.87,372.17c.11-.08,11.26-8.22,23.37-9.29.68-.07,1.36-.1,2.05-.11.64,0,1.2-.42,1.4-1.03.1-.32,2.25-6.75,6.01-17.06.15.05.32.09.49.09.02,0,.04,0,.06,0,0,0,3.57-.14,9.47-.4.37-.02.77-.03,1.16-.05.16.16.35.29.57.37,26.81,9.2,98.48,77.76,126.56,105.3-5.46,1.79-17.48,2.28-33.17,1.29-1.83-.12-3.45-.39-4.94-.85-7.41-2.27-11.27-.18-13.15,1.74-11.31-19.35-37.73-48.02-98.41-65.03-.48-.13-11.95-3.1-23.8,4.13-10.55,6.43-17.85,18.72-21.7,36.52-.45,1.54-6.28,22.11,1.21,37.57-10.04,1.28-21.76,11.11-25.13,14.1-.82-.76-2.25-1.83-4.74-3.38,10.17-49.4,27.91-84.36,52.71-103.9Z"/>
    <path class="av" d="M697.34,756.27c-2.02.13-5.9-1.59-10.14-4.46-.17-.12-.28-.33-.29-.57-.75-19.33-19.52-20.28-25.25-20.12-1.27.04-2.57,0-3.8-.04-12.84-.39-18.8,5.18-21.56,10l-4.58-32.67c-.04-.32-.33-.55-.65-.52-.33.03-.57.32-.54.65l3.57,38.35c-.11.25-.34.42-.62.42h-12.83c-.08,0-.16-.02-.23-.05.02-.13.02-.26,0-.39l-5.4-38.47c-.04-.31-.33-.54-.64-.51-.33.03-.57.32-.54.65l2.65,28.53c-.43-.51-.88-1-1.39-1.45-5.02-4.44-12.07-4.23-13.5-4.14l-62.63-2.04c-11.78-.92-20.26.99-25.22,5.66-1.12,1.05-1.97,2.18-2.63,3.31l-.66-11.04-.51-10.22-.19-5.11c-.03-1.67-.12-3.46.01-5.01v-.1c.03-.22-.13-.41-.34-.44-.23-.03-.44.12-.47.35-.27,1.84-.24,3.48-.31,5.21l-.08,5.13-.03,10.25.13,19.81c-.08.04-.18.07-.31.07h-16.78c-.12,0-.22-.03-.31-.07l.13-19.81-.03-10.25-.08-5.13c-.07-1.73-.04-3.37-.31-5.21-.03-.21-.23-.37-.44-.35-.23.02-.4.22-.38.45v.1c.14,1.55.05,3.34.02,5.01l-.19,5.11-.51,10.22-.66,11.04c-.66-1.13-1.51-2.25-2.63-3.31-4.96-4.68-13.44-6.58-25.16-5.67l-62.76,2.04c-1.36-.09-8.41-.3-13.43,4.14-.51.45-.96.94-1.39,1.45l2.65-28.53c.03-.31-.19-.6-.51-.64-.32-.05-.63.18-.67.51l-5.4,38.47s0,.05,0,.07c-.01.11,0,.22,0,.32-.07.03-.14.05-.22.05h-12.83c-.28,0-.51-.17-.62-.42l3.57-38.35c.03-.32-.2-.61-.52-.65-.33-.05-.63.18-.68.51l-4.58,32.67c-2.75-4.83-8.71-10.41-21.56-10-1.22.04-2.52.07-3.8.04-5.73-.18-24.5.78-25.25,20.12,0,.25-.12.46-.29.57-4.24,2.87-8.11,4.57-10.22,4.46-.91,0-91.57-.74-111.82-4.7-.28-.05-.41-.24-.47-.35-.06-.11-.13-.32-.02-.58,9.76-22.9,37.87-58.22,38.15-58.57,16.92-21.15,135.89-15.88,147.46-15.32v7.48c0,2.8,2.28,5.07,5.07,5.07h238.08c2.8,0,5.07-2.28,5.07-5.07v-7.48c11.57-.57,130.54-5.83,147.46,15.31.28.35,28.39,35.67,38.16,58.57.11.26.03.47-.02.58-.06.11-.19.29-.47.35-20.25,3.96-110.91,4.7-111.9,4.71Z"/>
    <path class="ah" d="M164.62,683.33c-8.75,0-15.86-7.12-15.86-15.86s7.12-15.86,15.86-15.86,15.86,7.12,15.86,15.86-7.12,15.86-15.86,15.86Z"/>
    <path class="at" d="M312.61,703.35c-.78,2.35-1.45,4.81-2.06,7.5l-3.54,15.65c-.97,4.31-1.52,7.84-1.71,11.11-.13,2.19-.96,3.92-2.48,5.14-2.65,2.13-7.49,2.71-14.01,1.68-.06,0-.11-.01-.17-.02l-62.64-2.72s-.04,0-.06,0c-.05,0-.11,0-.16,0-2.16.23-8.08.22-9.6-2.58-1.26-2.31.57-6.7,5.14-12.34.06-.08.12-.16.16-.25.18-.34,18-33.92,39.16-33.92l43.01-2.72c.08,0,.17-.02.25-.04.06-.01,5.89-1.35,8.61,1.61,1.94,2.11,1.97,6.23.1,11.9Z"/>
    <path class="ay" d="M276.5,602.63c-52.67.85-122.39-9.14-150.91-13.65-2.09-5.24-5.49-14.28-8.3-24.14,14.5,2.41,93.29,15.01,153.05,15.01,5.59,0,11.01-.12,16.2-.36-2.07,7.57-5.22,15.79-10.04,23.14Z"/>
    <path class="ay" d="M247.08,623.78c-3.06.38-99.08,11.83-119.56-30.1-.02-.04-.24-.56-.61-1.45,28.42,4.45,92.26,13.46,143.14,13.46,1.45,0,2.88,0,4.31-.02-6.31,8.43-15.07,15.33-27.28,18.12Z"/>
    <path class="ay" d="M289.99,561.04c-.42,4.04-1.21,9.45-2.66,15.42-62.45,3.08-160.24-13-170.91-14.8-1.98-7.45-3.5-15.16-3.78-21.9,39.19,10.45,163.37,17.86,177.39,18.67.05.86.05,1.73-.04,2.61Z"/>
    <path class="aw" d="M116.33,520.57c2.95-2.96,7.69-4.45,14.09-4.45.16,0,.32,0,.48,0h.03c1.24,0,124.41-.51,155.05,32.67,1.73,1.88,2.93,4.16,3.57,6.6-16.93-.98-139.62-8.42-176.95-18.76.02-.87.05-1.73.12-2.55.12-1.38.17-2.81.15-4.26-.03-2.13.38-6.16,3.46-9.25Z"/>
    <circle class="am" cx="224.47" cy="455.53" r="5"/>
    <path class="aj" d="M165.85,449.11c-8.18,0-14.83-6.65-14.83-14.83s6.65-14.83,14.83-14.83,14.83,6.65,14.83,14.83-6.65,14.83-14.83,14.83Z"/>
    <circle class="au" cx="224.47" cy="471.62" r="2.96"/>
    <path class="al" d="M240.96,465.05c-.81,1.41-2.63,1.9-4.04,1.08-1.41-.82-1.9-2.63-1.08-4.04.4-.68,1.03-1.17,1.8-1.38.76-.2,1.56-.1,2.24.3,1.41.81,1.9,2.63,1.08,4.04Z"/>
    <path class="aa" d="M241.25,448.25c-.2.76-.69,1.4-1.38,1.8-1.41.82-3.22.33-4.04-1.08-.82-1.41-.33-3.23,1.08-4.04.46-.27.97-.4,1.47-.4,1.02,0,2.02.53,2.57,1.48.4.68.5,1.48.3,2.24Z"/>
    <circle class="ai" cx="224.47" cy="439.45" r="2.96"/>
    <path class="ao" d="M213.1,448.97c-.82,1.41-2.63,1.9-4.04,1.08-.68-.4-1.17-1.03-1.38-1.8-.2-.76-.1-1.56.3-2.24s1.03-1.17,1.8-1.38c.25-.07.51-.1.77-.1.51,0,1.02.13,1.47.4,1.41.81,1.9,2.63,1.08,4.04Z"/>
    <path class="bj" d="M212.02,466.14c-.68.4-1.48.5-2.24.3-.76-.2-1.4-.69-1.8-1.38-.82-1.41-.33-3.22,1.08-4.04h0c.46-.26.96-.4,1.47-.4.26,0,.52.03.77.1.76.2,1.4.69,1.8,1.38.82,1.41.33,3.22-1.08,4.04Z"/>
    <circle class="bg" cx="274.36" cy="660.21" r="8.7"/>
    <circle class="bg" cx="358.4" cy="660.57" r="3.38"/>
    <path class="ay" d="M709.65,614.23c-2.68,6.33-11.02,9.77-24.79,10.2-1.53.05-147.44,5.02-182.7,4.51-.18-.07-.38-.1-.58-.09-.49.02-1.02.03-1.59.05-.56-.01-1.09-.03-1.58-.05-.2,0-.38.02-.56.09-35.23.5-181.19-4.46-182.72-4.51-13.77-.44-22.1-3.87-24.78-10.2-1.09-2.57-1.2-5.49-.69-8.51,12,.4,106.96,3.47,173,3.47,14.14,0,26.95-.14,37.34-.48,10.39.34,23.2.48,37.34.48,66.04,0,161-3.07,173-3.47.51,3.02.4,5.94-.69,8.51Z"/>
    <path class="ay" d="M303.47,580.34c33.96,1.05,105.55,3.04,158.74,3.04,14.28,0,27.25-.14,37.79-.49,10.54.34,23.5.49,37.79.49,53.19,0,124.78-1.99,158.74-3.04,3.16,3.8,10.46,13.26,13.11,22.4-17.32.57-151.54,4.86-209.6,2.97-.01,0-.03,0-.04,0-.02,0-.04,0-.06,0-58.06,1.89-192.28-2.4-209.6-2.97,2.65-9.14,9.96-18.6,13.11-22.4Z"/>
    <path class="ay" d="M361.21,554.39c1.18.08,2.44.13,3.85.15l134.91,2.42s.01,0,.02,0c0,0,0,0,.01,0h.03l134.91-2.42c1.42-.03,2.68-.08,3.85-.15,6.27-.41,37.98-1.15,55.37,23.02-44.34,1.35-145.27,4.07-194.12,2.48-.01,0-.02,0-.04,0-.02,0-.04,0-.06,0-48.84,1.59-149.78-1.12-194.12-2.48,17.39-24.16,49.11-23.43,55.37-23.02Z"/>
    <path class="ak" d="M835.38,683.33c-8.75,0-15.86-7.12-15.86-15.86s7.12-15.86,15.86-15.86,15.86,7.12,15.86,15.86-7.12,15.86-15.86,15.86Z"/>
    <path class="ba" d="M783.83,739.12c-1.52,2.8-7.45,2.81-9.6,2.58-.08,0-.15,0-.23,0l-62.64,2.72c-.06,0-.11,0-.17.02-6.51,1.03-11.36.45-14.01-1.68-1.52-1.22-2.35-2.95-2.48-5.14-.19-3.27-.73-6.8-1.71-11.11l-3.54-15.65c-.6-2.65-1.29-5.17-2.06-7.5-1.87-5.67-1.84-9.79.09-11.9,2.72-2.96,8.55-1.62,8.61-1.61.08.02.17.03.26.04l43.1,2.73c21.07,0,38.89,33.58,39.07,33.92.05.09.1.17.16.25,4.58,5.65,6.4,10.03,5.14,12.34Z"/>
    <path class="ay" d="M833.52,754.87c.19,0,.38-.01.57-.02h.12c.79-.04,1.58-.08,2.38-.13,2.22-.12,4.42-.29,6.57-.48v65.6h-9.64v-64.97Z"/>
    <path class="ay" d="M848.16,753.73c.15-.02.29-.03.44-.05l.68-.08c.68-.08,1.37-.17,2.06-.26,2.2-.29,4.36-.62,6.46-.99v67.49h-9.64v-66.11Z"/>
    <path class="ay" d="M862.8,751.39c.27-.06.54-.11.8-.16.69-.14,1.37-.3,2.03-.46l.45-.1c2.2-.52,4.32-1.08,6.36-1.68v70.85h-9.64v-68.45Z"/>
    <path class="bg" d="M500,686.31h-119.04c-1.14,0-2.07-.93-2.07-2.07v-42.89c0-1.14.93-2.08,2.07-2.08h238.08c1.14,0,2.07.93,2.07,2.08v42.89c0,1.14-.93,2.07-2.07,2.07h-119.04Z"/>
    <path class="ay" d="M127.56,748.99c2.04.59,4.16,1.16,6.39,1.68l.4.08c.68.16,1.36.33,2.04.46.27.06.55.11.82.17v68.45h-9.64v-70.85Z"/>
    <path class="ay" d="M142.2,752.35c2.1.37,4.26.7,6.46.99.69.09,1.39.18,2.07.26l.67.08c.15.02.29.03.44.05v66.11h-9.64v-67.49Z"/>
    <path class="ay" d="M156.84,754.23c2.15.19,4.34.37,6.56.49.81.05,1.6.09,2.39.12h.12c.19.01.38.02.57.03v64.97h-9.64v-65.61Z"/>
    <path class="as" d="M917.04,481.45c1.25,2.56.57,8.54.17,10.82-.21.47-1.22,1.28-2.84,2.02-2.46-1.84-5.48-7.54-7.52-12.37.39-.45,1.9-1.7,5.46-3.85.23-.14.43-.26.59-.36,1.24.38,3.12,2.33,4.15,3.73Z"/>
    <path class="ac" d="M500,325.2c-13.77-.27-27.78-.35-41.67-.26-.02-.1-.04-.2-.07-.31-.69-2.97-2.32-9.93.83-13.9,1.65-2.08,4.51-3.13,8.51-3.13.45,0,.88-.2,1.16-.55.29-.35.4-.81.31-1.25-.03-.14-2.83-14.54,5.25-24.14,5.21-6.18,13.84-9.14,25.63-8.79.02,0,.03,0,.05,0,.01,0,.03,0,.04,0,11.8-.36,20.42,2.6,25.64,8.79,8.09,9.6,5.28,23.99,5.25,24.14-.09.44.02.9.31,1.25s.71.55,1.16.55c4,0,6.86,1.05,8.51,3.13,3.15,3.97,1.52,10.93.83,13.9-.03.11-.05.2-.07.3-13.89-.1-27.91-.02-41.67.26Z"/>
    <path class="ay" d="M708.54,334.49c-5.34-17.37-16.21-27.24-26.93-32.84,4.55-.16,19.24.11,29.93,9.22,6.89,5.87,10.93,14.38,12.02,25.28-2.58-.23-4.99-.48-7.13-.73-.14-.02-2.88-.37-7.89-.94Z"/>
    <path class="as" d="M82.8,492.27c-.54-3.05-.95-8.53.17-10.82,1.03-1.4,2.91-3.35,4.15-3.73.16.1.36.22.59.36,3.55,2.15,5.06,3.39,5.45,3.85-2.05,4.84-5.06,10.53-7.52,12.37-1.62-.73-2.63-1.55-2.84-2.02Z"/>
    <path class="ay" d="M103.3,815.72c-15.12-15.95-16.67-71.74-16.48-98.97,4.71,13.06,15.6,22.96,32.57,29.5,1.02.4,2.09.78,3.17,1.15v72.44h-10.7c-3.16-.02-5.96-1.37-8.57-4.12Z"/>
    <path class="ay" d="M200.99,815.05c-4.51,4.73-8.53,4.79-8.71,4.79h-20.79v-64.82c1.42.03,2.8.04,4.11.04,8.03,0,13.65-.42,14.8-.52,4.69.89,12.74,1.62,22.45,2.22,1.46,36.31-5.61,51.74-11.85,58.29Z"/>
    <path class="ay" d="M807.7,819.84h0c-.08,0-4.11-.08-8.55-4.64-6.31-6.49-13.46-21.91-11.99-58.43,9.71-.59,17.76-1.32,22.45-2.22,1.14.09,6.76.52,14.8.52,1.31,0,2.68-.01,4.11-.04v64.82h-20.82Z"/>
    <path class="ay" d="M896.7,815.72c-2.61,2.75-5.41,4.1-8.55,4.12h-10.71v-72.44c1.08-.37,2.15-.76,3.17-1.15,16.97-6.54,27.87-16.44,32.58-29.5.19,27.23-1.36,83.02-16.48,98.97Z"/>
    <path class="ay" d="M709.98,558.43c14.02-.81,138.2-8.22,177.39-18.67-.28,6.75-1.8,14.46-3.78,21.9-10.67,1.8-108.44,17.88-170.91,14.8-1.45-5.97-2.24-11.39-2.66-15.42-.09-.88-.09-1.75-.04-2.61Z"/>
    <path class="ay" d="M874.42,588.98c-28.51,4.51-98.21,14.49-150.91,13.65-4.82-7.35-7.97-15.57-10.04-23.14,5.19.24,10.6.36,16.2.36,59.77,0,138.56-12.6,153.05-15.01-2.81,9.87-6.21,18.92-8.3,24.14Z"/>
    <path class="ay" d="M752.92,623.78c-12.21-2.79-20.98-9.69-27.29-18.13,1.43.01,2.85.04,4.3.04,50.9,0,114.74-9.01,143.16-13.46-.36.85-.57,1.36-.59,1.39-20.5,41.97-116.51,30.54-119.58,30.16Z"/>
    <path class="an" d="M714.02,548.79c30.64-33.18,153.79-32.68,155.06-32.67,0,0,.02,0,.03,0,6.64-.07,11.55,1.42,14.57,4.45,3.08,3.09,3.49,7.12,3.46,9.25-.02,1.44.03,2.88.15,4.26.07.82.11,1.68.12,2.55-37.33,10.34-160.02,17.77-176.95,18.76.63-2.45,1.83-4.73,3.57-6.6Z"/>
    <circle class="bf" cx="775.53" cy="455.53" r="5"/>
    <path class="bn" d="M834.15,419.45c8.18,0,14.83,6.65,14.83,14.83s-6.65,14.83-14.83,14.83-14.83-6.65-14.83-14.83,6.65-14.83,14.83-14.83Z"/>
    <path class="af" d="M775.53,474.57c-1.63,0-2.96-1.33-2.96-2.96s1.33-2.96,2.96-2.96,2.96,1.33,2.96,2.96-1.33,2.96-2.96,2.96Z"/>
    <path class="bl" d="M758.74,462.81c.21-.76.69-1.4,1.38-1.8.46-.26.96-.4,1.47-.4.26,0,.52.03.77.1.76.2,1.4.69,1.79,1.38.82,1.41.33,3.22-1.08,4.04-1.41.82-3.23.33-4.04-1.08-.4-.68-.5-1.48-.3-2.24Z"/>
    <path class="ax" d="M759.04,446.01c.39-.68,1.03-1.17,1.8-1.38.25-.07.51-.1.77-.1.51,0,1.02.13,1.47.4,1.41.81,1.9,2.63,1.08,4.04-.39.68-1.03,1.17-1.79,1.38-.76.2-1.56.1-2.24-.3s-1.17-1.03-1.38-1.8c-.2-.76-.1-1.56.3-2.24Z"/>
    <path class="ad" d="M775.53,436.49c1.63,0,2.96,1.33,2.96,2.96s-1.33,2.96-2.96,2.96-2.96-1.33-2.96-2.96,1.33-2.96,2.96-2.96Z"/>
    <path class="az" d="M786.6,446.72c.21-.76.69-1.4,1.38-1.8.46-.26.96-.4,1.47-.4.26,0,.52.03.77.1.76.2,1.4.69,1.79,1.38.82,1.41.33,3.22-1.08,4.04-.68.4-1.48.5-2.24.3-.76-.2-1.4-.69-1.8-1.38-.4-.68-.5-1.48-.3-2.24Z"/>
    <path class="bb" d="M792.02,465.05c-.39.68-1.03,1.17-1.8,1.38-.76.2-1.56.1-2.24-.3-1.41-.82-1.9-2.63-1.08-4.04.39-.68,1.03-1.17,1.8-1.38.25-.07.51-.1.77-.1.51,0,1.02.13,1.47.4h0c1.41.82,1.9,2.63,1.08,4.04Z"/>
    <circle class="bg" cx="725.64" cy="660.21" r="8.7"/>
    <path class="bg" d="M641.6,663.96c-1.87,0-3.38-1.52-3.38-3.38s1.52-3.38,3.38-3.38,3.38,1.52,3.38,3.38-1.52,3.38-3.38,3.38Z"/>
    <path d="M512.91,427.58h-25.83c-.83,0-1.5.67-1.5,1.5v9.79c0,.18.03.37.1.54,2.65,6.91,13.57,9.1,14.03,9.19.09.02.18.03.27.03,0,0,0,0,0,0,0,0,0,0,0,0s0,0,0,0c0,0,0,0,0,0,.09,0,.18,0,.27-.03.46-.09,11.38-2.28,14.03-9.19.07-.17.1-.35.1-.54v-9.79c0-.83-.67-1.5-1.5-1.5ZM511.41,438.58c-2.03,4.68-9.88,6.67-11.42,7.01-2.84-.61-9.59-2.86-11.41-7.01v-7.99h22.83v7.99Z"/>
    <path class="ar" d="M79.2,619.17s136.82,27.79,298.19,27.34"/>
    <path class="ar" d="M500,467.72s-126.7.51-135.13,1.28c0,0-32.94.26-38.3-8.68,0,0-104.43-105.32-138.64-117.06h0"/>
    <path class="ar" d="M500,326.7c-14.72-.29-29.1-.36-42.98-.25-99.05.78-173.26,10.46-173.26,10.46-2.13.25-4.65.51-7.46.76-.97.09-1.98.17-3.02.26-24.86,2.09-68.49,4.1-87.63,4.93-5.89.26-9.46.4-9.46.4"/>
    <path class="ar" d="M500,555.47l-134.91-2.42c-1.26-.02-2.52-.07-3.78-.15-6.86-.44-39.82-1.14-57.45,24.7,0,0-42.55,46.64,11.23,48.34,0,0,159.32,5.45,186.55,4.43"/>
    <path class="ar" d="M500,748.83h-8.39c-1.21,0-2.2-.98-2.18-2.2.1-5.2-2.31-17.71-28.3-15.68l-62.7,2.04c-.07,0-.14,0-.21,0-1.35-.09-15.89-.69-16.72,13.76-.07,1.16-.99,2.07-2.15,2.07h-12.83c-1.04,0-1.93-.74-2.14-1.76-.86-4.32-4.76-15.03-22.19-14.48-1.3.04-2.59.07-3.89.04-5.46-.16-23.01.73-23.71,18.67-.03.7-.36,1.36-.95,1.76-2.17,1.47-7.65,4.92-11.07,4.71,0,0-91.48-.69-112.1-4.73-1.36-.27-2.13-1.71-1.58-2.98,9.96-23.36,38.36-58.92,38.36-58.92,18.38-22.98,149.62-15.83,149.62-15.83"/>
    <path class="ar" d="M500,637.77h-119.04c-1.97,0-3.57,1.6-3.57,3.57v42.89c0,1.97,1.6,3.57,3.57,3.57h119.04"/>
    <circle class="as" cx="164.62" cy="667.47" r="17.36"/>
    <path class="ar" d="M306.8,737.7c-.23,3.96-2.81,10.66-18.22,8.21l-62.64-2.72s-21.79,2.38-5.79-17.36c0,0,18.16-34.72,40.4-34.72l43.01-2.72s16.92-4.07,10.48,15.44c-.8,2.41-1.46,4.88-2.02,7.36l-3.54,15.65c-.81,3.58-1.46,7.21-1.67,10.87Z"/>
    <path class="ar" d="M500,164.66c-75.98-1.21-200.58,7.81-220.1,9.93-2.14.23-4.23.78-6.2,1.65-52,23.04-105.43,185.02-105.43,185.02-.73.01-1.45.05-2.17.12-12.69,1.12-24.12,9.58-24.12,9.58-28.28,22.28-44.55,61.74-53.5,105.83"/>
    <path class="ar" d="M190.48,753.03s-9.13.83-22,.42c-.82-.03-1.65-.06-2.5-.1-.82-.04-1.65-.08-2.49-.13-3.08-.17-6.32-.42-9.65-.78-.83-.08-1.66-.18-2.5-.28-.82-.1-1.65-.2-2.48-.31-3.18-.42-6.42-.94-9.66-1.58l-.15-.03c-.79-.15-1.57-.31-2.35-.48-.68-.14-1.35-.3-2.02-.46l-.42-.09c-3.27-.77-6.52-1.66-9.7-2.71-1.56-.51-3.11-1.06-4.63-1.65-18.7-7.21-33.9-20.21-34.29-43.34,0,0-15.44-109.4-.53-205.81"/>
    <path class="ar" d="M141.98,370.96s-5.69-13.55-11.17-14.09c-1.04-.1-2.08-.14-3.1-.35-7.04-1.44-29.03-6.99-29.13-20.28,0,0,.41-23.5,36.68-35.67,7.94-2.66,16.28-3.9,24.66-3.9h0c1.15,0,2.28.18,3.36.55,3.01,1.05,8.25,3.86,7.43,10.55,0,0,1.28,32.55-5.62,41.49l1.02,12.12"/>
    <path class="ar" d="M130.91,514.62s124.71-.9,156.17,33.15c3.34,3.62,4.91,8.53,4.4,13.42-1.66,15.84-9.3,56.17-44.14,64.06,0,0-99.74,12.94-121.19-30.98,0,0-16.8-38.36-14.92-60.32.12-1.37.16-2.74.14-4.11-.07-4.42,1.57-15.43,19.54-15.23Z"/>
    <path class="ar" d="M261.68,481.64c5.57-3.12,8-9.86,5.84-15.87-5.62-15.7-27.11-55.74-103.59-77.19,0,0-33.19-8.94-43.66,39.57,0,0-14.55,48.51,26.3,52.09,0,0,91.66,13.02,110.81,3.32,0,0,1.96-.61,4.3-1.92Z"/>
    <circle class="aq" cx="224.47" cy="455.53" r="6"/>
    <circle class="aq" cx="224.47" cy="455.53" r="27.19"/>
    <circle class="aq" cx="165.85" cy="434.28" r="15.83"/>
    <circle class="aq" cx="165.85" cy="434.28" r="31.66"/>
    <circle class="aq" cx="224.47" cy="471.62" r="3.96"/>
    <circle class="ap" cx="238.4" cy="463.57" r="3.96"/>
    <circle class="ap" cx="238.4" cy="447.49" r="3.96"/>
    <circle class="aq" cx="224.47" cy="439.45" r="3.96"/>
    <circle class="ap" cx="210.54" cy="447.49" r="3.96"/>
    <circle class="ap" cx="210.54" cy="463.57" r="3.96"/>
    <path class="ar" d="M98.57,336.23s44.33,6.25,70.08,3.81"/>
    <path class="ar" d="M185.65,342.86c35.61-97.46,67.73-138.31,74.15-145.89.73-.86,1.74-1.39,2.86-1.5,18.03-1.81,174.7-12.29,237.34-12.42"/>
    <path class="ar" d="M262.6,454.96s2.18-6.38,12.85-3.11c1.72.53,3.49.8,5.29.91,8.27.52,29.6,1.45,35.91-2.31"/>
    <circle class="aq" cx="274.36" cy="660.21" r="9.7"/>
    <circle class="aq" cx="358.4" cy="660.57" r="4.38"/>
    <path class="ar" d="M94.62,481.48c-.22-.99-4.19-3.51-6.14-4.69-.64-.39-1.06-.64-1.06-.64-2.55.08-5.74,4.51-5.74,4.51-1.87,3.57-.34,12-.34,12,.44,1.39,2.65,2.54,3.77,3.04.39.18.65.28.65.28,3.92-2.01,8.2-12.06,9.08-14.2l.16-.4s15.91-14.92,27.45-14.68"/>
    <path d="M127.56,746.5v74.84h-5v-75.19c0-.48.13-.92.37-1.3,1.52.59,3.07,1.14,4.63,1.65Z"/>
    <path d="M142.2,750.27v70.05c0,.36-.08.71-.22,1.02-.38.87-1.26,1.48-2.28,1.48s-1.9-.61-2.28-1.48c-.14-.31-.22-.66-.22-1.02v-70.56c0-.19.02-.37.06-.55l4.94,1.06Z"/>
    <path d="M156.84,752.44v67.88c0,.36-.08.71-.22,1.02-.38.87-1.26,1.48-2.28,1.48s-1.9-.61-2.28-1.48c-.14-.31-.22-.66-.22-1.02v-68.16c0-.1.01-.21.02-.31.83.11,1.66.21,2.48.31.84.1,1.67.2,2.5.28Z"/>
    <path d="M171.48,753.45v66.87c0,.36-.08.71-.22,1.02-.38.87-1.26,1.48-2.28,1.48s-1.9-.61-2.28-1.48c-.14-.31-.22-.66-.22-1.02v-66.97s0-.09.01-.13c.84.05,1.67.09,2.49.13.85.04,1.68.07,2.5.1Z"/>
    <path class="ar" d="M115.2,562.97s105.97,18.37,172.67,14.96"/>
    <path class="ar" d="M124.51,590.33c25.57,4.06,98.59,14.77,152.76,13.79h.01"/>
    <path class="ar" d="M288.45,604.18s148.97,5.07,211.55,3.03"/>
    <path class="ar" d="M302.78,578.82c38.81,1.2,146.45,4.23,197.22,2.57"/>
    <path class="ar" d="M291.41,557s-141.26-7.83-180.32-19.24"/>
    <path d="M368.41,233.67c-.04.83-.75,1.46-1.57,1.42-13.51-.69-24.23,3.09-31.89,11.23-17.31,18.41-13.56,53.39-13.53,53.74.06.45-.1.9-.42,1.23-.32.32-.77.48-1.21.44-.19-.02-18.6-1.71-31.33,9.14-7.21,6.14-11.31,15.16-12.16,26.8-.97.09-1.98.17-3.02.26.83-12.72,5.29-22.59,13.25-29.36,11.45-9.74,26.58-10.13,31.75-9.94-.58-7.6-1.68-37.15,14.48-54.36,8.28-8.81,19.79-12.91,34.23-12.17.78.04,1.39.68,1.41,1.44.01.04.01.08.01.13Z"/>
    <path class="ar" d="M366.91,233.6c54.9-2.81,46.98,66.63,46.98,66.63,0,0,34.1-3.44,43.13,26.22.7,0-7.64-20.34,10.57-20.34,0,0-7.36-35.91,32.4-34.72"/>
    <path d="M362.89,746.9l5.39-38.48c.05-.33.35-.56.68-.51.32.04.54.33.52.65l-3.6,38.68c-.08.83-.81,1.43-1.63,1.35-.83-.08-1.43-.81-1.35-1.63,0-.02,0-.05,0-.07Z"/>
    <path d="M379.57,746.9l5.4-38.47c.05-.32.35-.55.67-.51.32.04.54.33.51.64l-3.6,38.68c-.08.83-.81,1.43-1.63,1.36-.83-.08-1.43-.81-1.36-1.63,0-.02,0-.05,0-.07Z"/>
    <path d="M488.3,747.82l1.22-20.43.51-10.22.19-5.11c.03-1.67.12-3.46-.01-5.01v-.1c-.03-.23.14-.43.37-.45.22-.02.41.14.44.35.27,1.84.24,3.48.31,5.21l.08,5.13.03,10.25-.13,20.49c0,.83-.68,1.5-1.51,1.49s-1.5-.68-1.49-1.51c0-.02,0-.05,0-.07v-.02Z"/>
    <path class="ar" d="M500,447.13s-10.53-2.04-12.92-8.26v-9.79h12.91"/>
    <path class="ar" d="M214.28,755.34c3.02,66.42-22.01,66-22.01,66h-80.42c-31.66-.25-26.21-119.83-26.21-119.83,13.62,9.87,123.25,14.5,123.25,14.5"/>
    <path class="ar" d="M920.8,619.17s-136.82,27.79-298.19,27.34"/>
    <path class="ar" d="M500,467.72s126.7.51,135.13,1.28c0,0,32.94.26,38.3-8.68,0,0,104.43-105.32,138.64-117.06h0"/>
    <path class="ar" d="M823.81,343.26s-3.57-.14-9.46-.4c-19.14-.83-62.77-2.84-87.63-4.93-1.04-.09-2.05-.17-3.02-.26-2.81-.25-5.33-.51-7.46-.76,0,0-74.21-9.68-173.26-10.46-13.88-.11-28.26-.04-42.98.25"/>
    <path class="ar" d="M500,555.47l134.91-2.42c1.26-.02,2.52-.07,3.78-.15,6.86-.44,39.82-1.14,57.45,24.7,0,0,42.55,46.64-11.23,48.34,0,0-159.32,5.45-186.55,4.43"/>
    <path class="ar" d="M500,748.83h8.39c1.21,0,2.2-.98,2.18-2.2-.1-5.2,2.31-17.71,28.3-15.68l62.7,2.04c.07,0,.14,0,.21,0,1.35-.09,15.89-.69,16.72,13.76.07,1.16.99,2.07,2.15,2.07h12.83c1.04,0,1.93-.74,2.14-1.76.86-4.32,4.76-15.03,22.19-14.48,1.3.04,2.59.07,3.89.04,5.46-.16,23.01.73,23.71,18.67.03.7.36,1.36.95,1.76,2.17,1.47,7.65,4.92,11.07,4.71,0,0,91.48-.69,112.1-4.73,1.36-.27,2.13-1.71,1.58-2.98-9.96-23.36-38.36-58.92-38.36-58.92-18.38-22.98-149.62-15.83-149.62-15.83"/>
    <path class="ar" d="M500,637.77h119.04c1.97,0,3.57,1.6,3.57,3.57v42.89c0,1.97-1.6,3.57-3.57,3.57h-119.04"/>
    <circle class="as" cx="835.38" cy="667.47" r="17.36"/>
    <path class="ar" d="M693.2,737.7c.23,3.96,2.81,10.66,18.22,8.21l62.64-2.72s21.79,2.38,5.79-17.36c0,0-18.16-34.72-40.4-34.72l-43.01-2.72s-16.92-4.07-10.48,15.44c.8,2.41,1.46,4.88,2.02,7.36l3.54,15.65c.81,3.58,1.46,7.21,1.67,10.87Z"/>
    <path class="ar" d="M500,164.66c75.98-1.21,200.58,7.81,220.1,9.93,2.14.23,4.23.78,6.2,1.65,52,23.04,105.43,185.02,105.43,185.02.73.01,1.45.05,2.17.12,12.69,1.12,24.12,9.58,24.12,9.58,28.28,22.28,44.55,61.74,53.5,105.83"/>
    <path class="ar" d="M914.89,495.7c14.91,96.41-.53,205.81-.53,205.81-.39,23.13-15.59,36.13-34.29,43.34-1.52.59-3.07,1.14-4.63,1.65-3.18,1.05-6.43,1.94-9.7,2.71l-.42.09c-.67.16-1.34.32-2.02.46-.78.17-1.56.33-2.35.48l-.15.03c-3.24.64-6.48,1.16-9.66,1.58-.83.11-1.66.21-2.48.31-.84.1-1.67.2-2.5.28-3.33.36-6.57.61-9.65.78-.84.05-1.67.09-2.49.13-.85.04-1.68.07-2.5.1-12.87.41-22-.42-22-.42"/>
    <path class="ar" d="M858.02,370.96s5.69-13.55,11.17-14.09c1.04-.1,2.08-.14,3.1-.35,7.04-1.44,29.03-6.99,29.13-20.28,0,0-.41-23.5-36.68-35.67-7.94-2.66-16.28-3.9-24.66-3.9h0c-1.15,0-2.28.18-3.36.55-3.01,1.05-8.25,3.86-7.43,10.55,0,0-1.28,32.55,5.62,41.49l-1.02,12.12"/>
    <path class="ar" d="M869.09,514.62s-124.71-.9-156.17,33.15c-3.34,3.62-4.91,8.53-4.4,13.42,1.66,15.84,9.3,56.17,44.14,64.06,0,0,99.74,12.94,121.19-30.98,0,0,16.8-38.36,14.92-60.32-.12-1.37-.16-2.74-.14-4.11.07-4.42-1.57-15.43-19.54-15.23Z"/>
    <path class="ar" d="M738.32,481.64c-5.57-3.12-8-9.86-5.84-15.87,5.62-15.7,27.11-55.74,103.59-77.19,0,0,33.19-8.94,43.66,39.57,0,0,14.55,48.51-26.3,52.09,0,0-91.66,13.02-110.81,3.32,0,0-1.96-.61-4.3-1.92Z"/>
    <circle class="aq" cx="775.53" cy="455.53" r="6"/>
    <circle class="aq" cx="775.53" cy="455.53" r="27.19"/>
    <circle class="aq" cx="834.15" cy="434.28" r="15.83"/>
    <circle class="aq" cx="834.15" cy="434.28" r="31.66"/>
    <circle class="aq" cx="775.53" cy="471.62" r="3.96"/>
    <circle class="ap" cx="761.6" cy="463.57" r="3.96"/>
    <circle class="ap" cx="761.6" cy="447.49" r="3.96"/>
    <circle class="ap" cx="775.53" cy="439.45" r="3.96"/>
    <circle class="aq" cx="789.46" cy="447.49" r="3.96"/>
    <circle class="ap" cx="789.46" cy="463.57" r="3.96"/>
    <path class="ar" d="M901.43,336.23s-44.33,6.25-70.08,3.81"/>
    <path class="ar" d="M814.35,342.86c-35.61-97.46-67.73-138.31-74.15-145.89-.73-.86-1.74-1.39-2.86-1.5-18.03-1.81-174.7-12.29-237.34-12.42"/>
    <path class="ar" d="M737.4,454.96s-2.18-6.38-12.85-3.11c-1.72.53-3.49.8-5.29.91-8.27.52-29.6,1.45-35.91-2.31"/>
    <circle class="aq" cx="725.64" cy="660.21" r="9.7"/>
    <circle class="aq" cx="641.6" cy="660.57" r="4.38"/>
    <path class="ar" d="M905.38,481.48c.22-.99,4.19-3.51,6.14-4.69.64-.39,1.06-.64,1.06-.64,2.55.08,5.74,4.51,5.74,4.51,1.87,3.57.34,12,.34,12-.44,1.39-2.65,2.54-3.77,3.04-.39.18-.65.28-.65.28-3.92-2.01-8.2-12.06-9.08-14.2l-.16-.4s-15.91-14.92-27.45-14.68"/>
    <path d="M872.44,746.5v74.84s5,0,5,0v-75.19c0-.48-.13-.92-.37-1.3-1.52.59-3.07,1.14-4.63,1.65Z"/>
    <path d="M862.74,749.21c.04.18.06.36.06.55v70.56c0,.36-.08.71-.22,1.02-.38.87-1.26,1.48-2.28,1.48s-1.9-.61-2.28-1.48c-.14-.31-.22-.66-.22-1.02v-70.05s4.94-1.06,4.94-1.06Z"/>
    <path d="M843.16,752.44v67.88c0,.36.08.71.22,1.02.38.87,1.26,1.48,2.28,1.48s1.9-.61,2.28-1.48c.14-.31.22-.66.22-1.02v-68.16c0-.1-.01-.21-.02-.31-.83.11-1.66.21-2.48.31-.84.1-1.67.2-2.5.28Z"/>
    <path d="M828.52,753.45v66.87c0,.36.08.71.22,1.02.38.87,1.26,1.48,2.28,1.48s1.9-.61,2.28-1.48c.14-.31.22-.66.22-1.02v-66.97s0-.09-.01-.13c-.84.05-1.67.09-2.49.13-.85.04-1.68.07-2.5.1Z"/>
    <path class="ar" d="M884.8,562.97s-105.97,18.37-172.67,14.96"/>
    <path class="ar" d="M722.72,604.12h0c54.17.98,127.19-9.73,152.76-13.79"/>
    <path class="ar" d="M711.55,604.18s-148.97,5.07-211.55,3.03"/>
    <path class="ar" d="M500,581.39c50.77,1.66,158.41-1.37,197.22-2.57"/>
    <path class="ar" d="M708.59,557s141.26-7.83,180.32-19.24"/>
    <path d="M631.59,233.67c.04.83.75,1.46,1.57,1.42,13.51-.69,24.23,3.09,31.89,11.23,17.31,18.41,13.56,53.39,13.53,53.74-.06.45.1.9.42,1.23.32.32.77.48,1.21.44.19-.02,18.6-1.71,31.33,9.14,7.21,6.14,11.31,15.16,12.16,26.8.97.09,1.98.17,3.02.26-.83-12.72-5.29-22.59-13.25-29.36-11.45-9.74-26.58-10.13-31.75-9.94.58-7.6,1.68-37.15-14.48-54.36-8.28-8.81-19.79-12.91-34.23-12.17-.78.04-1.39.68-1.41,1.44-.01.04-.01.08-.01.13Z"/>
    <path class="ar" d="M500,271.38c39.77-1.19,32.4,34.72,32.4,34.72,18.21,0,9.87,20.34,10.57,20.34,9.03-29.66,43.13-26.22,43.13-26.22,0,0-7.92-69.44,46.98-66.63"/>
    <path d="M634.13,747.24l-3.6-38.68c-.03-.33.21-.62.54-.65.32-.03.61.2.65.52l5.39,38.48c.11.82-.46,1.58-1.28,1.69-.82.11-1.58-.46-1.69-1.28,0-.02,0-.05,0-.07Z"/>
    <path d="M617.45,747.24l-3.6-38.68c-.03-.33.21-.62.54-.65.32-.03.6.2.64.51l5.4,38.47c.12.82-.46,1.58-1.28,1.69s-1.58-.46-1.69-1.28c0-.02,0-.05,0-.07Z"/>
    <path d="M508.7,747.93l-.13-20.49.03-10.25.08-5.13c.07-1.73.04-3.37.31-5.21.03-.23.24-.38.47-.35.22.03.37.23.35.44v.1c-.14,1.55-.05,3.34-.02,5.01l.19,5.11.51,10.22,1.22,20.43v.02c.05.83-.58,1.54-1.41,1.59-.83.05-1.54-.58-1.59-1.41,0-.02,0-.05,0-.08Z"/>
    <path class="ar" d="M500,447.13s10.53-2.04,12.92-8.26v-9.79s-12.91,0-12.91,0"/>
    <path class="ar" d="M785.72,755.34c-3.02,66.42,22.01,66,22.01,66h24.01s4.56,0,4.56,0h10.08s4.56,0,4.56,0h10.08s4.56,0,4.56,0h9.86s5,0,5,0h7.71c31.66-.25,26.21-119.83,26.21-119.83-13.62,9.87-123.25,14.5-123.25,14.5"/>
    <path class="ar" d="M585.04,327.32c18.39-32.07,57.87-31.76,57.87-31.76,0,0,51.22-5.26,64.48,40.31"/>
    <path class="ar" d="M488.96,183.04s-.26,34.6,11.04,34.47"/>
    <path class="ar" d="M493.13,211.35s-36.26,7.36-38.13-4.26c0,0-3.57-14.32-2.89-22.84"/>
    <path class="ar" d="M511.04,183.04s.26,34.6-11.04,34.47"/>
    <path class="ar" d="M506.87,211.35s36.26,7.36,38.13-4.26c0,0,3.57-14.32,2.89-22.84"/>
  </g>
  <g id="z" data-name="Colour">
    <text class="ab" transform="translate(384.84 674.45)"><tspan x="0" y="0">De</tspan><tspan class="bc" x="52.45" y="0">n</tspan><tspan class="be" x="76.97" y="0">y</tspan><tspan class="bm" x="98.21" y="0">s </tspan><tspan class="ae" x="127.51" y="0">K</tspan><tspan class="bk" x="153.36" y="0">o</tspan><tspan class="bi" x="176.4" y="0">v</tspan><tspan x="197.28" y="0">al</tspan></text>
  </g>
</svg>